<svg height="512" viewBox="0 0 512 512" width="512" xmlns="http://www.w3.org/2000/svg"><g id="Filled_outline" data-name="Filled outline"><path d="m144 472h7.589a32 32 0 0 0 27.665-15.916l24.079-41.417-50.666-23.334-45.334 80.667z" fill="#f7a468"/><path d="m137.343 423.183-17.343-127.183h-48v144a32 32 0 0 0 32 32h40z" fill="#feb784"/><path d="m431.3 297.738-63.3-9.738v-64h-80v64l-3.053.509-6.2 1.033-9.778 1.629-10.7 1.784-2.586.43-36.983 6.165-2.613.435a47.957 47.957 0 0 0 -35.017 25.877l-29.07 58.138 56 32 24-40v120h240v-150.82a48 48 0 0 0 -40.7-47.442z" fill="#fec9a3"/><path d="m472 345.18v126.82h-40v24h-200v-120l-24 40-56-32 29.07-58.14a47.954 47.954 0 0 1 35.02-25.87c.84-.15 1.74-.3 2.61-.44l66.25-11.04 3.05-.51 40 96 40-96 63.3 9.74a47.969 47.969 0 0 1 40.7 47.44z" fill="#7a432a"/><path d="m472 345.18v126.82h-40v24h-200v-14.99c77.62-24.23 171.34-73.89 208.33-180.97a48.02 48.02 0 0 1 31.67 45.14z" fill="#743b20"/><path d="m288 224v53.21a47.814 47.814 0 0 0 16 2.79h48a47.814 47.814 0 0 0 16-2.79v-53.21z" fill="#feb784"/><path d="m256 360 45.667-39-13.667-41-32 13.333z" fill="#95573a"/><path d="m354.667 320.094 45.333 39.906v-67.077l-32-12.923z" fill="#95573a"/><path d="m424 432h64v40h-64z" fill="#7a432a"/><path d="m119.5 413 72.5 46.5 24-41-74.378-46.352z" fill="#95573a"/><path d="m408 120h-8v48h8a24 24 0 1 0 0-48z" fill="#feb784"/><path d="m248.4 120h-.4a24 24 0 0 0 0 48h8v-48z" fill="#feb784"/><path d="m400 112v56a72 72 0 1 1 -144 0v-56a72.009 72.009 0 0 1 69.65-71.96c.78-.03 1.56-.04 2.35-.04a71.7 71.7 0 0 1 48 18.34c1 .89 1.97 1.81 2.91 2.75a71.775 71.775 0 0 1 21.09 50.91z" fill="#fec9a3"/><path d="m400 112v56a72.047 72.047 0 0 1 -85.62 70.71 87.992 87.992 0 0 0 48.62-78.71v-48a88.081 88.081 0 0 0 -37.35-71.96c.78-.03 1.56-.04 2.35-.04a72.006 72.006 0 0 1 72 72z" fill="#fec093"/><path d="m376 58.34v5.66h-18.76c-18.31 0-34.97 9.86-44.53 25.48a51.654 51.654 0 0 1 -24.87 20.98l-8.98 3.6a83.735 83.735 0 0 1 -15.15 4.44c-2.55.49-5.13.87-7.71 1.11v-7.61a72.009 72.009 0 0 1 69.65-71.96c.78-.03 1.56-.04 2.35-.04a71.7 71.7 0 0 1 48 18.34z" fill="#fec093"/><path d="m352 264h-48a48 48 0 0 1 -48-48v-96l7.155 30.311a32 32 0 0 0 28.622 17.689h72.446a32 32 0 0 0 28.622-17.689l7.155-30.311v96a48 48 0 0 1 -48 48z" fill="#c7c7c5"/><path d="m392.845 150.311a31.97 31.97 0 0 1 -24.845 17.423v48.266a48 48 0 0 1 -48 48h32a48 48 0 0 0 48-48v-96z" fill="#bfbfbd"/><path d="m292 136a12 12 0 1 1 12-12 12.013 12.013 0 0 1 -12 12z" fill="#7a432a"/><path d="m364 136a12 12 0 1 1 12-12 12.013 12.013 0 0 1 -12 12z" fill="#7a432a"/><path d="m321.758 160 6.086-30.43-15.688-3.14-8 40a8 8 0 0 0 7.844 9.57h16v-16z" fill="#f7a468"/><path d="m320 384h16v112h-16z" fill="#61311b"/><g fill="#4f2816"><path d="m288 384h16v16h-16z"/><path d="m288 432h16v16h-16z"/><path d="m288 480h16v16h-16z"/></g><path d="m360 400h56v72h-56z" fill="#61311b"/><path d="m368 40v16h-18.75a51.663 51.663 0 0 0 -44.3 25.08 51.59 51.59 0 0 1 -25.11 21.38l-23.84 9.54v-40a48 48 0 0 1 48-48h38.11a28.939 28.939 0 0 1 25.89 16z" fill="#c7c7c5"/><path d="m368 64a51.776 51.776 0 0 0 28.622 46.311l3.378 1.689v-40a32 32 0 0 0 -32-32z" fill="#bfbfbd"/><path d="m352 160h-48l-2.463.821a66.6 66.6 0 0 0 -45.537 63.179l37.652-8.367a46.534 46.534 0 0 0 34.348-31.633 46.534 46.534 0 0 0 34.348 31.633l37.652 8.367a66.6 66.6 0 0 0 -45.537-63.179z" fill="#e0e0de"/><path d="m348 336h-40l20 48z" fill="#a3a3a1"/><path d="m314 350.625-58 9.375 45.667-39z" fill="#61311b"/><path d="m341.929 350.463 58.071 9.537-45.333-39.906z" fill="#61311b"/><path d="m216 418.5-25.061-15.618a119.963 119.963 0 0 1 -31.639 35.642l32.7 20.976z" fill="#82462a"/><path d="m424 463.385v8.615h64v-40h-5.233c-16.599 21.714-42.217 29.03-58.767 31.385z" fill="#743b20"/><path d="m416 376h16v120h-16z" fill="#4f2816"/><path d="m432 472h40v16h-40z" fill="#feb784"/><path d="m141.622 372.147-22.122 40.853 40.344 25.876c-4.294-33.627-10.775-53.772-15.906-65.286z" fill="#82462a"/><path d="m165.981 187.706a23.291 23.291 0 0 0 -6.644-27.567 23.387 23.387 0 1 0 -39.611-17.651 23.185 23.185 0 0 0 -25.788 30.177 23.269 23.269 0 0 0 -.066 42.623l28.493 12.7a23.413 23.413 0 0 0 30.9-11.821 23.176 23.176 0 0 0 .81-16.7 23.214 23.214 0 0 0 11.906-11.761z" fill="#69a340"/><path d="m26.019 188.925a23.989 23.989 0 0 1 6.644-28.063 23.675 23.675 0 0 1 -5.11-7.37 23.954 23.954 0 0 1 11.836-31.422 23.249 23.249 0 0 1 30.9 12.034 24.015 24.015 0 0 1 1.981 8.789 23.261 23.261 0 0 1 24.978 13.719 23.985 23.985 0 0 1 .81 17 23.417 23.417 0 0 1 11.9 11.97 23.952 23.952 0 0 1 -11.83 31.418l-28.493 12.93a23.249 23.249 0 0 1 -30.9-12.034 23.985 23.985 0 0 1 -.81-17 23.417 23.417 0 0 1 -11.906-11.971z" fill="#69a340"/><rect fill="#fec9a3" height="80" rx="16" width="80" x="56" y="232"/><path d="m120 232h-32a16 16 0 0 1 16 16v48a16 16 0 0 1 -16 16h32a16 16 0 0 0 16-16v-48a16 16 0 0 0 -16-16z" fill="#fec093"/><path d="m88.1 313.534c12.84-4.638 27.167 1.6 32 13.921q5.829 14.874 10.457 30.143l15.994 52.779a375.253 375.253 0 0 1 12.349 55.641 10.463 10.463 0 0 1 -6.849 11.256 10.474 10.474 0 0 1 -12.17-3.836 384.624 384.624 0 0 1 -29.229-50.095l-24.219-49.809q-7-14.4-12.835-29.285c-4.831-12.326 1.662-26.078 14.502-30.715z" fill="#e67007"/><path d="m95.9 313.534c-12.84-4.638-27.167 1.6-32 13.921q-5.828 14.874-10.456 30.145l-15.994 52.777a375.253 375.253 0 0 0 -12.35 55.641 10.463 10.463 0 0 0 6.849 11.256 10.474 10.474 0 0 0 12.17-3.836 384.624 384.624 0 0 0 29.229-50.095l24.215-49.809q7-14.4 12.835-29.285c4.835-12.326-1.658-26.078-14.498-30.715z" fill="#e67007"/><path d="m120 336v.44q-.015 15.765-1.23 31.51l-4.24 55.16a391.588 391.588 0 0 1 -8.67 57.11 9.987 9.987 0 0 1 -3.56 5.6 10.155 10.155 0 0 1 -16.16-5.6 394.22 394.22 0 0 1 -8.41-53.82c-.09-1.09-.18-2.19-.26-3.29l-4.24-55.16q-1.23-15.945-1.23-31.95a24 24 0 0 1 48 0z" fill="#f98500"/><path d="m120 336.44q-.015 15.765-1.23 31.51l-4.24 55.16a391.588 391.588 0 0 1 -8.67 57.11 9.987 9.987 0 0 1 -3.56 5.6 10.155 10.155 0 0 1 -16.16-5.6 394.22 394.22 0 0 1 -8.41-53.82 344.565 344.565 0 0 0 42.27-89.96z" fill="#f27900"/><path d="m96 352h23.693q.306-8 .307-16h-24z" fill="#e66000"/><path d="m96 384h21.539l1.231-16h-22.77z" fill="#e66000"/><path d="m96 416h19.077l1.231-16h-20.308z" fill="#e66000"/><path d="m129.77 192a23.905 23.905 0 0 1 -17.77 40h-32a23.905 23.905 0 0 1 -17.77-40 23.8 23.8 0 0 1 11.53-39.08 24 24 0 1 1 44.48 0 23.8 23.8 0 0 1 11.53 39.08z" fill="#7eb457"/><path d="m129.77 192a23.905 23.905 0 0 1 -17.77 40h-32a23.941 23.941 0 0 1 -17.83-7.94 343.94 343.94 0 0 0 52.4-95.25 23.792 23.792 0 0 1 3.67 24.11 23.8 23.8 0 0 1 11.53 39.08z" fill="#77ad50"/><path d="m88 168h16v64h-16z" fill="#69a340"/><path d="m368 40v16h-14.6a88.381 88.381 0 0 0 -27.81-32h16.52a28.939 28.939 0 0 1 25.89 16z" fill="#bfbfbd"/><path d="m488 424h-8v-78.8a55.7 55.7 0 0 0 -47.507-55.347l-30.211-4.636-26.282-10.617v-8.04a55.512 55.512 0 0 0 31.179-41.452 65.025 65.025 0 0 0 .821-9.108v-40a32 32 0 1 0 0-64v-40a40.051 40.051 0 0 0 -35.264-39.71 36.7 36.7 0 0 0 -30.625-16.29h-38.111a56.064 56.064 0 0 0 -56 56v40a32 32 0 0 0 0 64v40c0 1.5.518 7.591.821 9.108a55.512 55.512 0 0 0 31.179 41.452v8.04l-27 10.9a7.849 7.849 0 0 0 -.741.367l-37.478 6.233a56.139 56.139 0 0 0 -40.9 30.161l-26.081 52.245-4.544-2.679-5.047-16.576c-3.437-11.189-6.933-21.248-10.687-30.75a31.738 31.738 0 0 0 -2.531-5.026 24.039 24.039 0 0 0 19.009-23.475v-48a23.859 23.859 0 0 0 -2.9-11.433 31.475 31.475 0 0 0 19.479-17.129 30.415 30.415 0 0 0 2.532-15.99 31.08 31.08 0 0 0 6.783-43.754 33.3 33.3 0 0 0 1.9-3.579 31.4 31.4 0 0 0 -52.141-33.643 31.953 31.953 0 0 0 -47.353.047 31.232 31.232 0 0 0 -36.26-7.719c-15.665 7.14-22.78 25.937-15.862 41.9.021.049.042.1.064.145a33.16 33.16 0 0 0 1.921 3.6 32.264 32.264 0 0 0 -3.463 31.793 31.7 31.7 0 0 0 10.219 12.6 31.669 31.669 0 0 0 20.087 33.113c.344.131.689.25 1.036.368a23.851 23.851 0 0 0 -2.042 9.681v48a24.019 24.019 0 0 0 12.646 21.138 31.308 31.308 0 0 0 -4.166 7.362c-3.755 9.5-7.251 19.562-10.7 30.78l-16 52.8a387.536 387.536 0 0 0 -12.58 56.782 18.511 18.511 0 0 0 33.53 13.106 397.319 397.319 0 0 0 20.87-33.853c1.643 12.735 3.888 25.414 6.735 37.885a18.14 18.14 0 0 0 35.322 0c2-8.777 3.7-17.66 5.111-26.59q6.805 11.4 14.494 22.56a18.511 18.511 0 0 0 33.527-13.109c-.461-3.181-.974-6.348-1.51-9.506l22.188 15.239a8 8 0 0 0 11.389-2.478l24-40a8 8 0 0 0 -2.8-11.008l-2.511-1.48 6.455-10.746v91.118h16v-120a8 8 0 0 0 -14.86-4.116l-21.371 35.616-42.154-24.852 26.572-53.217a40.086 40.086 0 0 1 29.206-21.542l30.607-5.089v57.2a8 8 0 0 0 13.122 6.146l39.344-32.787 19.534 52.092v110.549h16v-110.549l19.534-52.092 39.344 32.787a8 8 0 0 0 13.122-6.146v-57.719l22.065 3.386a39.783 39.783 0 0 1 33.935 39.533v78.8h-32v-48h-16v16h-56a8 8 0 0 0 -8 8v72a8 8 0 0 0 8 8h56v16h16v-16h32v16h16v-16h8a8 8 0 0 0 8-8v-40a8 8 0 0 0 -8-8zm-80-296a16 16 0 1 1 0 32zm-160 32a16 16 0 0 1 0-32zm-118.981-22.973a15.422 15.422 0 0 1 28.181 12.528 15.975 15.975 0 0 1 -3.389 4.839 8 8 0 0 0 .51 11.982 15.245 15.245 0 0 1 4.379 18.024 15.062 15.062 0 0 1 -7.829 7.708 8 8 0 0 0 -4.395 9.826 14.974 14.974 0 0 1 -.5 10.941 15.715 15.715 0 0 1 -3.548 4.992 31.658 31.658 0 0 0 -2.8-25.869 31.639 31.639 0 0 0 4.372-15.998 31.974 31.974 0 0 0 -16.287-27.774c-.151-2.038-.275-8.101 1.306-11.199zm-53.173 23.619a8 8 0 0 0 5.334-10.7 16 16 0 1 1 29.64 0 8 8 0 0 0 5.334 10.7 15.985 15.985 0 0 1 11.846 15.354 15.773 15.773 0 0 1 -4.172 10.646 8 8 0 0 0 0 10.708 15.773 15.773 0 0 1 4.172 10.646 16.019 16.019 0 0 1 -16 16h-8v-56h-16v56h-8a16.019 16.019 0 0 1 -16-16 15.773 15.773 0 0 1 4.172-10.646 8 8 0 0 0 0-10.708 15.773 15.773 0 0 1 -4.172-10.646 15.985 15.985 0 0 1 11.846-15.354zm-27.846 15.354a31.639 31.639 0 0 0 4.365 16 31.694 31.694 0 0 0 -1.745 28.669 15.781 15.781 0 0 1 -5.088-17.327 8 8 0 0 0 -4.31-9.749 15.575 15.575 0 0 1 -7.89-7.833 16.079 16.079 0 0 1 4.418-18.724 8 8 0 0 0 .547-11.813 17.219 17.219 0 0 1 -3.468-4.957 16.059 16.059 0 0 1 7.83-20.9 15.807 15.807 0 0 1 11.692-.361c8.016 2.7 9.513 10.753 9.755 12.506a37.63 37.63 0 0 1 .181 6.713 31.974 31.974 0 0 0 -16.287 27.776zm18.164 243.864a378.346 378.346 0 0 1 -28.613 49.036 2.517 2.517 0 0 1 -4.517-1.752 371.547 371.547 0 0 1 12.066-54.428l15.991-52.771c1.047-3.409 2.1-6.695 3.162-9.9.206 6.189.53 12.38 1 18.515l3.53 45.887zm45.519-67.864c-.2 5.129-.5 10.254-.887 15.339l-.05.661h-14.746v16h13.515l-1.231 16h-12.284v16h11.053l-.5 6.5q-.262 3.408-.588 6.818l-.006.068a384.689 384.689 0 0 1 -7.9 49.052 2.142 2.142 0 0 1 -4.124 0 384.428 384.428 0 0 1 -8.488-55.938l-4.247-55.161c-.8-10.38-1.2-20.924-1.2-31.339a16 16 0 0 1 32 0h-16v16zm-39.683-48a8.009 8.009 0 0 1 -8-8v-48a8.009 8.009 0 0 1 8-8h48a8.009 8.009 0 0 1 8 8v48a8.009 8.009 0 0 1 -8 8zm77.321 165.749a2.5 2.5 0 0 1 -2.886-.866 379.467 379.467 0 0 1 -24.343-40.356c.143-1.6.291-3.2.414-4.8l4-51.981 2.166 7.115c.018.08.043.159.063.239.014.055.028.11.044.166s.028.116.045.174l10.082 33.285c2.657 8.752 4.966 17.551 6.866 26.16.028.181.062.363.1.542 2.013 9 3.724 18.33 5.085 27.728a2.47 2.47 0 0 1 -1.636 2.594zm55.671-42.949-15.475 25.792-28.717-19.727c-1.873-8.189-4.07-16.507-6.582-24.784l-4.136-13.656zm187.008-258.8a65.126 65.126 0 0 1 -.636 9.021 74.343 74.343 0 0 0 -6.317-6.873 40.272 40.272 0 0 0 6.953-5.357zm-16-118.629a24.042 24.042 0 0 1 16 22.629v25.86a43.508 43.508 0 0 1 -16-33.86zm-112 22.629a40.045 40.045 0 0 1 40-40h38.111a20.816 20.816 0 0 1 17.889 10.048v5.952h-10.753a59.958 59.958 0 0 0 -51.154 28.962 43.906 43.906 0 0 1 -21.221 18.073l-12.872 5.149zm0 45.416 18.814-7.526a59.993 59.993 0 0 0 28.855-24.458 44.032 44.032 0 0 1 37.578-21.432h10.753a59.434 59.434 0 0 0 32 52.922l-5.458 25a22.761 22.761 0 0 1 -14.989 16.948q-.582.188-1.175.346a37.169 37.169 0 0 0 -19.5-7.211h-27.519l4.486-22.431-15.69-3.138-5.113 25.564s-14.375 1.833-21.337 7.163a23.229 23.229 0 0 1 -8.722-4.3c-.045-.037-.092-.073-.139-.109l-.074-.056a19.471 19.471 0 0 1 -7-11.281zm0 50.584v-3.206a37.628 37.628 0 0 0 3.085 2.639 38.748 38.748 0 0 0 3.885 2.694 74.539 74.539 0 0 0 -6.334 6.9 65.169 65.169 0 0 1 -.636-9.027zm40.067.411 1.233-.411h45.4l1.232.411a58.514 58.514 0 0 1 39.184 45.42l-27.035-6.008a38.616 38.616 0 0 1 -28.442-26.194 8 8 0 0 0 -15.282 0 38.616 38.616 0 0 1 -28.442 26.194l-27.035 6.008a58.513 58.513 0 0 1 39.187-45.42zm-37.541 61.445 28.862-6.414a54.653 54.653 0 0 0 32.612-21.652 54.653 54.653 0 0 0 32.612 21.652l28.862 6.414a39.538 39.538 0 0 1 -24.115 23.793l-.1.036a38.536 38.536 0 0 1 -13.259 2.315h-48a38.536 38.536 0 0 1 -13.257-2.315l-.1-.036a39.538 39.538 0 0 1 -24.117-23.793zm-2.526 113.063v-44.6l19.553-7.9 10.861 27.152zm64 18.3-6.456-17.219h12.912zm32-82.757-19.544 49.538h-24.912l-19.544-49.541v-7.046a55.5 55.5 0 0 0 8 .587h48a55.5 55.5 0 0 0 8-.587zm32 64.46-30.414-25.344 10.861-27.152 19.553 7.894zm24 121.078h-48v-56h48zm64 0h-48v-24h48z"/><circle cx="292" cy="123.998" r="12"/><circle cx="364" cy="123.998" r="12"/><path d="m288 384h16v16h-16z"/><path d="m288 432h16v16h-16z"/></g></svg>