<svg height="512" viewBox="0 0 512 512" width="512" xmlns="http://www.w3.org/2000/svg"><g id="Filled_outline" data-name="Filled outline"><path d="m475.085 347.476a48 48 0 0 0 -37.931-42.812l-79.154-16.664-22-16v-64h-80v64l-22 16-79.154 16.664a48 48 0 0 0 -37.931 42.812l-12.915 148.524h384z" fill="#fec9a3"/><path d="m475.085 347.476a48 48 0 0 0 -37.931-42.812l-79.154-16.664h-124l-18 3.79-61.154 12.874a48 48 0 0 0 -37.931 42.812l-12.915 148.524h384z" fill="#bfbfbd"/><path d="m312 256a55.692 55.692 0 0 0 24-5.461v-42.539h-80v42.536a55.692 55.692 0 0 0 24 5.464z" fill="#feb784"/><path d="m253.657 340.928 42.343-52.928-48-16-14 16h.182z" fill="#e0e0de"/><path d="m338.343 340.928-42.343-52.928 48-16 14 16h-.182z" fill="#e0e0de"/><path d="m296 288-16 20v104.518l16 43.482 16-43.482v-104.518z" fill="#49648e"/><path d="m488 496h-384l.9-10.37 12.02-138.15a48 48 0 0 1 37.93-42.82l61.15-12.87 18-3.79h.18l61.82 72 61.82-72h.18l66.78 14.06 12.37 2.6a48 48 0 0 1 37.93 42.82z" fill="#3d4d63"/><path d="m488 496h-384l.9-10.37c112.82-21.31 259.52-70.55 319.88-183.57l12.37 2.6a48 48 0 0 1 37.93 42.82z" fill="#374559"/><g fill="#29384a"><path d="m79.882 420.002h136.235v15.996h-136.235z" transform="matrix(.059 -.998 .998 .059 -287.938 550.662)"/><path d="m436.002 359.882h15.996v136.235h-15.996z" transform="matrix(.998 -.059 .059 .998 -24.367 26.811)"/><path d="m184 352h224v16h-224z"/><path d="m232 360h16v136h-16z"/><path d="m344 360h16v136h-16z"/><path d="m176 300.21v195.79h16v-199.158z"/><path d="m400 296.842v199.158h16v-195.79z"/><path d="m288 352h16v144h-16z"/></g><path d="m208 88h176v72h-176z" fill="#95573a"/><path d="m368 112v72a56 56 0 0 1 -56 56h-32.29a56 56 0 0 1 -55.71-56v-72a72.009 72.009 0 0 1 69.65-71.96c.78-.03 1.56-.04 2.35-.04a72.006 72.006 0 0 1 72 72z" fill="#fec9a3"/><path d="m368 112v72a56 56 0 0 1 -56 56h-32.29a88.01 88.01 0 0 0 51.29-80v-48a88.081 88.081 0 0 0 -37.35-71.96c.78-.03 1.56-.04 2.35-.04a72.006 72.006 0 0 1 72 72z" fill="#fec093"/><path d="m288.938 192h-16.938v-16h16.938a99.077 99.077 0 0 0 28.742-4.215l4.64 15.313a115.016 115.016 0 0 1 -33.382 4.902z" fill="#f7a468"/><path d="m344 40v24h-80a30.739 30.739 0 0 0 -29.821 23.283l-4.358 17.434a30.739 30.739 0 0 1 -29.821 23.283v-48.676a55.323 55.323 0 0 1 7.884-28.464 55.324 55.324 0 0 1 47.44-26.86h62.787a28.944 28.944 0 0 1 25.889 16z" fill="#95573a"/><path d="m344 40v24l24 56h16v-55.812a27.039 27.039 0 0 0 -4.542-15 27.044 27.044 0 0 0 -31.058-10.656z" fill="#8f4d2e"/><path d="m376 120h-8v48h8a24 24 0 1 0 0-48z" fill="#feb784"/><path d="m216.4 120h-.4a24 24 0 0 0 0 48h8v-48z" fill="#feb784"/><path d="m260 112a12 12 0 1 0 12 12 12.013 12.013 0 0 0 -12-12z" fill="#7a432a"/><path d="m332 112a12 12 0 1 0 12 12 12.013 12.013 0 0 0 -12-12z" fill="#7a432a"/><path d="m48 368h64v128h-64z" fill="#4c5d72"/><path d="m48 360h64v56h-64z" fill="#e0e0de"/><rect fill="#fec9a3" height="80" rx="16" width="80" x="48" y="304"/><path d="m112 304h-32a16 16 0 0 1 16 16v48a16 16 0 0 1 -16 16h32a16 16 0 0 0 16-16v-48a16 16 0 0 0 -16-16z" fill="#fec093"/><path d="m136 200h-80a32 32 0 0 1 -32-32 32 32 0 0 1 32-32h80z" fill="#7a432a"/><path d="m72 200h32v104h-32z" fill="#7a432a"/><path d="m72 224h32v16h-32z" fill="#ffb531"/><path d="m72 200h32v16h-32z" fill="#61311b"/><path d="m36.84 193.488a31.712 31.712 0 0 0 19.16 6.512h80v-64h-7.178c-27.422 35.683-64.596 50.88-91.982 57.488z" fill="#743b20"/><circle cx="136" cy="168" fill="#61311b" r="32"/><path d="m344 40a28.944 28.944 0 0 0 -25.889-16h-32.382c11.25 10.275 23.195 23.728 32.169 40h26.102z" fill="#8f4d2e"/><path d="m272 192h16.934a115.032 115.032 0 0 0 33.385-4.9l-4.638-15.313a99.062 99.062 0 0 1 -28.747 4.213h-16.934z"/><path d="m272 124a12 12 0 1 0 -12 12 12.013 12.013 0 0 0 12-12z"/><path d="m332 136a12 12 0 1 0 -12-12 12.013 12.013 0 0 0 12 12z"/><path d="m79.882 420h136.235v16h-136.235z" transform="matrix(.059 -.998 .998 .059 -287.951 550.615)"/><path d="m436 359.882h16v136.235h-16z" transform="matrix(.998 -.059 .059 .998 -24.364 26.808)"/><path d="m56 208h8v88a24.027 24.027 0 0 0 -24 24v168a8 8 0 0 0 8 8h64a8 8 0 0 0 8-8v-97.376a24.039 24.039 0 0 0 16-22.624v-44.144c.072-.075.151-.144.22-.222 5.1-5.746 12.927-9.617 20.36-11.176l19.42-4.085v187.627h16v-128h40v128h16v-128h40v128h16v-128h40v128h16v-128h40v128h16v-187.651l19.458 4.117a39.887 39.887 0 0 1 31.692 35.665l12.88 148.56 15.94-1.382-12.88-148.566a55.806 55.806 0 0 0 -44.315-49.93l-76.516-16.094-12.238-13.987a7.99 7.99 0 0 0 -6.021-2.72v-24.612a63.3 63.3 0 0 0 32-55.4v-8a31.989 31.989 0 0 0 16-59.7v-52.112a35.042 35.042 0 0 0 -44.562-33.723 36.686 36.686 0 0 0 -29.358-14.465h-62.72a63.325 63.325 0 0 0 -54.277 30.726 62.82 62.82 0 0 0 -9.083 32.634v43.505a31.976 31.976 0 0 0 24 53.135v8a63.287 63.287 0 0 0 32 55.4v24.61a7.99 7.99 0 0 0 -6.021 2.72l-12.239 13.99-76.5 16.091a54.872 54.872 0 0 0 -20.51 8.932c-.314.217-.63.457-.945.686a23.99 23.99 0 0 0 -19.785-10.429v-88h24a40 40 0 0 0 0-80h-80a40.043 40.043 0 0 0 -28.257 11.664l-.078.078a40.017 40.017 0 0 0 28.335 68.258zm136 97.008 39.168-8.238 28.946 33.714-.017.015 18.479 21.501h-86.576zm88-57.008h32a63.608 63.608 0 0 0 16-2.037v22.937l-32 10.666-32-10.666v-22.94a63.543 63.543 0 0 0 16 2.04zm24 90.4-8 9.316-1.352-1.573-6.648-7.743v-27.6l8-10 8 10zm22.041-25.671-16.351-20.422-.276-.346 32.068-10.689 5.84 6.673zm-43.455-20.77-.276.346-16.351 20.424-21.281-24.786 5.84-6.673zm30.827 60.041 6.2-7.224 12.287-14.276-.017-.015 28.948-33.716 39.169 8.208v47.023zm62.587-192v-32h.024a16 16 0 0 1 -.024 32zm-3.2-106.375a18.976 18.976 0 0 1 3.2 10.563v47.812h-2.725l-21.275-49.642v-16.558a19.088 19.088 0 0 1 20.8 7.825zm-158.039 1.4a48.012 48.012 0 0 1 17.243-16.854 47.065 47.065 0 0 1 23.356-6.171h62.72a21.085 21.085 0 0 1 17.92 10.042v13.958h-72a38.736 38.736 0 0 0 -37.6 29.356l-4.333 17.492a21.805 21.805 0 0 1 -4.28 8.519c-.062.076-.123.154-.182.234-.1.13-.208.264-.315.4h-1.29a31.94 31.94 0 0 0 -8 1.012v-33.653a46.827 46.827 0 0 1 6.763-24.335zm-14.761 88.975a16.018 16.018 0 0 1 16-16v32a16.019 16.019 0 0 1 -16-16zm32 40v-64.971a37.438 37.438 0 0 0 5.6-12.385l4.314-17.414a22.748 22.748 0 0 1 22.086-17.23h74.725l21.275 49.641v62.359a47.525 47.525 0 0 1 -27.482 43.358 46.749 46.749 0 0 1 -20.518 4.642h-32a46.823 46.823 0 0 1 -20.582-4.673 47.5 47.5 0 0 1 -27.418-43.327zm-176 206.624a23.889 23.889 0 0 0 8 1.376h40v16h-48zm0 89.376v-56h48v56zm64-160v48a8.009 8.009 0 0 1 -8 8h-48a8.009 8.009 0 0 1 -8-8v-48a8.009 8.009 0 0 1 8-8h48a8.009 8.009 0 0 1 8 8zm-40-24v-56h16v56zm16-72h-16v-16h16zm64-56a24 24 0 1 1 -24-24 24.028 24.028 0 0 1 24 24zm-120.983-16.982a24.132 24.132 0 0 1 16.983-7.018h48.022a39.912 39.912 0 0 0 0 48h-48.022a24.017 24.017 0 0 1 -16.983-40.982z"/></g></svg>