<svg height="512" viewBox="0 0 512 512" width="512" xmlns="http://www.w3.org/2000/svg"><g id="Filled_outline" data-name="Filled outline"><path d="m104 248a48 48 0 0 1 48 48v32a0 0 0 0 1 0 0h-96a0 0 0 0 1 0 0v-32a48 48 0 0 1 48-48z" fill="#c7c7c5"/><path d="m144 200.32v23.88a39.564 39.564 0 0 1 -11.72 28.14 40.123 40.123 0 0 1 -61.23-5.57 39.516 39.516 0 0 1 -7.05-22.57v-23.88a39.3 39.3 0 0 1 8.18-23.87h-.18v-72.45c0-7.93 5.45-15.28 13.31-16.55a15.985 15.985 0 0 1 18.69 15.7 15.985 15.985 0 0 1 18.69-15.7c7.86 1.27 13.31 8.62 13.31 16.55v72.45h-.18a40.651 40.651 0 0 1 6.06 11.26 38.357 38.357 0 0 1 2.12 12.61z" fill="#e0e0de"/><path d="m112 176h-16v-65.625a8 8 0 0 1 8-8 8 8 0 0 1 8 8z" fill="#d6d6d4"/><path d="m144 200.32v23.88a39.564 39.564 0 0 1 -11.72 28.14 40.123 40.123 0 0 1 -61.23-5.57c25.87-14.73 49.42-33.03 70.83-59.06a38.357 38.357 0 0 1 2.12 12.61z" fill="#d6d6d4"/><path d="m96 224h16v16h-16z" fill="#a3a3a1"/><path d="m488 496v-147.123a48 48 0 0 0 -35.632-46.377l-84.368-22.5v-72h-96v72l-77.187 22.053a48 48 0 0 0 -34.813 46.153v147.794" fill="#fec9a3"/><path d="m320 272a68.2 68.2 0 0 0 48-19.737v-44.263h-96v44.263a68.2 68.2 0 0 0 48 19.737z" fill="#feb784"/><path d="m368 280-48 24-48-24-77.187 22.053a48 48 0 0 0 -34.813 46.153v147.794h328v-147.123a48 48 0 0 0 -35.632-46.377z" fill="#d6d6d4"/><path d="m312 304h16v192h-16z" fill="#bfbfbd"/><path d="m488 348.88v147.12h-328v-147.79a48.016 48.016 0 0 1 34.81-46.16l28.18-8.05 23.66-6.76.25-.07 73.1 152.83 73.3-153.25.1.03 23.9 6.37 35.07 9.35a48.006 48.006 0 0 1 35.63 46.38z" fill="#2e3e51"/><path d="m488 348.88v147.12h-209.47c78.86-26.81 164.38-77.08 203.09-171.03a47.906 47.906 0 0 1 6.38 23.91z" fill="#29384a"/><path d="m392 109.59v32.83a258.2 258.2 0 0 1 -5.02 50.67 68.3 68.3 0 0 1 -133.96 0q-2.505-12.525-3.76-25.21t-1.26-25.46v-32.83a72.006 72.006 0 0 1 72-72c.68 0 1.36.01 2.03.03a72 72 0 0 1 69.97 71.97z" fill="#fec9a3"/><path d="m392 109.59v32.83a258.2 258.2 0 0 1 -5.02 50.67 68.332 68.332 0 0 1 -88.01 51.6 88.028 88.028 0 0 0 64.03-84.69v-48a88.089 88.089 0 0 0 -40.97-74.38 72 72 0 0 1 69.97 71.97z" fill="#fec093"/><path d="m318.891 192h-14.891v-16h14.891c10.949 0 21.546-2.52 29.078-6.91l8.062 13.82c-10.051 5.863-23.242 9.09-37.14 9.09z" fill="#f7a468"/><path d="m248 120h-8a24 24 0 0 0 0 48h9.273q-1.268-12.746-1.273-25.584z" fill="#feb784"/><path d="m400 120h-8v22.416q0 12.824-1.273 25.584h9.273a24 24 0 0 0 0-48z" fill="#feb784"/><path d="m48 328h112v168h-112z" fill="#22303d"/><path d="m48 328h112v32h-112z" fill="#29384a"/><path d="m184 335.922a407.887 407.887 0 0 0 -160 0v-32a407.887 407.887 0 0 1 160 0z" fill="#3d4d63"/><path d="m240 392 16-24h-40l6.99-74 23.66-6.76 73.35 152.76z" fill="#3d4d63"/><path d="m384 368 16 32-80 40 73.4-153.22 23.9 6.37 6.7 74.85z" fill="#3d4d63"/><path d="m304 288h32v32h-32z" fill="#374559"/><path d="m304 288-48-16v64l48-16z" fill="#29384a"/><path d="m336 288 48-16v64l-48-16z" fill="#29384a"/><path d="m72 384h16v16h-16z" fill="#374559"/><path d="m72 416h16v48h-16z" fill="#374559"/><path d="m72 328a16 16 0 0 1 -16-16v-12.8a11.2 11.2 0 0 1 11.2-11.2h9.6a11.2 11.2 0 0 1 11.2 11.2v12.8a16 16 0 0 1 -16 16z" fill="#e0e0de"/><path d="m136 328a16 16 0 0 1 -16-16v-12.8a11.2 11.2 0 0 1 11.2-11.2h9.6a11.2 11.2 0 0 1 11.2 11.2v12.8a16 16 0 0 1 -16 16z" fill="#e0e0de"/><path d="m284 141.59a12 12 0 1 1 12-12 12.013 12.013 0 0 1 -12 12z" fill="#7a432a"/><path d="m356 141.59a12 12 0 1 1 12-12 12.013 12.013 0 0 1 -12 12z" fill="#7a432a"/><path d="m248 120v-32c0-26.51 17.909-48 40-48l-1.408 5.068c-7.842 28.232-21.055 53.888-38.592 74.932z" fill="#f27900"/><path d="m392 120v-55.015a25.754 25.754 0 0 0 -32-24.985v24s14.463 34.956 32 56z" fill="#f27900"/><path d="m360 40v24h-112a39.8 39.8 0 0 1 9.87-26.29c.59-.69 1.21-1.35 1.85-1.99a40 40 0 0 1 28.28-11.72h33.37a54.641 54.641 0 0 1 38.63 16z" fill="#f27900"/><path d="m345.83 64h-20.51l-32-40h20.3z" fill="#f98500"/><path d="m307.23 64h-22.76l-26.6-26.29c.59-.69 1.21-1.35 1.85-1.99a39.936 39.936 0 0 1 11.23-7.9z" fill="#f98500"/><g fill="#22303d"><path d="m280 448h16v16h-16z"/><path d="m416 424h16v72h-16z"/><path d="m312 440h16v56h-16z"/><path d="m208 424h16v72h-16z"/></g><path d="m96 224h16v16h-16z"/><path d="m454.46 294.75-62.46-16.656v-6.094a8 8 0 0 0 -10.53-7.589l-5.47 1.823v-34.683a76.1 76.1 0 0 0 18.8-36.851c1.3-6.434 2.309-12.615 3.075-18.7h2.125a32 32 0 0 0 0-64v-47.015a33.743 33.743 0 0 0 -37.469-33.542 62.149 62.149 0 0 0 -41.158-15.443h-33.373a48.055 48.055 0 0 0 -48 48 7.974 7.974 0 0 0 2.569 5.863 64.877 64.877 0 0 0 -2.569 18.137v24a32 32 0 0 0 0 64h2.124c.769 6.108 1.777 12.281 3.075 18.707a76.094 76.094 0 0 0 18.801 36.843v34.684l-5.47-1.823a8 8 0 0 0 -10.53 7.589v6.529l-55.347 15.844a51.1 51.1 0 0 0 -5.94 2.028c-.362-.131-18.3-3.487-26.884-4.615a55.182 55.182 0 0 0 -16.252-35.363c-.751-.751-1.517-1.468-2.291-2.164a47.44 47.44 0 0 0 10.714-30.059v-23.876a46.939 46.939 0 0 0 -8-26.175v-70.149c0-12.09-8.613-22.6-20.034-24.45a24.133 24.133 0 0 0 -19.547 5.405c-.142.121-.281.242-.419.365-.138-.123-.277-.244-.419-.365a24.15 24.15 0 0 0 -19.546-5.405c-11.422 1.85-20.035 12.36-20.035 24.45v70.149a46.939 46.939 0 0 0 -8 26.175v23.876a47.439 47.439 0 0 0 10.719 30.062 56.479 56.479 0 0 0 -18.55 37.521c-8.582 1.129-17.217 2.559-25.761 4.294a8 8 0 0 0 -6.408 7.843v32a8 8 0 0 0 9.569 7.845c5-1 9.758-1.847 14.431-2.591v146.826a8 8 0 0 0 8 8h112a8 8 0 0 0 8-8v-146.822c4.851.755 9.673 1.614 14.4 2.58a8 8 0 0 0 9.6-7.838v-24.375c1.675-.725 21.763-6.563 21.763-6.563l-5.729 62.285a8 8 0 0 0 7.966 8.733h25.052l-7.708 11.562a8 8 0 0 0 2.54 11.3l76.116 45.667v51.471h16v-51.056l75.578-37.789a8 8 0 0 0 3.577-10.733l-10.211-20.422h27.056a8 8 0 0 0 7.967-8.726l-5.786-63.506 24.154 6.441a40.065 40.065 0 0 1 29.665 38.671v147.12h16v-147.12a56.086 56.086 0 0 0 -41.54-54.13zm-398.46 44.179a397.331 397.331 0 0 1 96 0v13.071h-96zm22.873-74.022a48.053 48.053 0 0 0 50.251 0 42.091 42.091 0 0 1 3.165 2.854 39.388 39.388 0 0 1 8.392 12.239h-9.481a19.178 19.178 0 0 0 -15.689 8.169c-3.4-.115-19.623-.115-23.022 0a19.178 19.178 0 0 0 -15.689-8.169h-9.4a40.313 40.313 0 0 1 11.473-15.093zm65.127 34.293v12.8a8 8 0 0 1 -16 0v-12.8a3.2 3.2 0 0 1 3.2-3.2h9.6a3.2 3.2 0 0 1 3.2 3.2zm-80 0a3.2 3.2 0 0 1 3.2-3.2h9.6a3.2 3.2 0 0 1 3.2 3.2v12.8a8 8 0 0 1 -16 0zm30.576 20.941a23.888 23.888 0 0 0 1.424-8.141v-7.921c2.42-.053 13.58-.053 16 0v7.921a23.9 23.9 0 0 0 1.424 8.143q-9.424-.213-18.848-.002zm-22.576-119.817a31.309 31.309 0 0 1 6.552-19.039 8 8 0 0 0 1.448-6.533v-70.752c0-4.255 2.895-8.057 6.591-8.655a8.055 8.055 0 0 1 6.619 1.794 7.885 7.885 0 0 1 2.79 6.009v72.852h16v-72.852a7.885 7.885 0 0 1 2.79-6.009 8.055 8.055 0 0 1 6.62-1.794c3.7.6 6.59 4.4 6.59 8.655v70.752a8 8 0 0 0 1.448 6.533 31.309 31.309 0 0 1 6.552 19.039v23.876a32 32 0 0 1 -64 0zm-40 110.196c5.326-.982 10.671-1.829 16-2.565v4.045a23.855 23.855 0 0 0 2.919 11.462c-1.317.173-2.639.338-3.95.525-4.894.636-9.847 1.393-14.969 2.29zm24 169.48v-112h96v112zm120-153.729c-3.92-.679-17.637-2.64-18.919-2.809a23.855 23.855 0 0 0 2.919-11.462v-4.045c5.329.736 10.674 1.583 16 2.565zm129.3 1.729h6.7v76.773l-32.628-68.131zm70.7-44.9v41.8l-32-10.666v-20.468zm-15.435 53.521-32.565 68.104v-76.725h6.7zm-32.565-24.621h-16v-16h16zm88-168a16.019 16.019 0 0 1 -16 16h-.584c.04-.618.584-32 .584-32a16.019 16.019 0 0 1 16 16zm-32-79.015v29.15a315.751 315.751 0 0 1 -16-31.768v-15.06a17.78 17.78 0 0 1 16 17.678zm-32-21.519v12.534h-12.155l-19.2-24h.728a46.283 46.283 0 0 1 30.627 11.466zm-51.845-11.466 19.2 24h-20.042l-22.113-22.119a31.853 31.853 0 0 1 10.8-1.881zm-44.155 56a48.211 48.211 0 0 1 2.678-16h9.646a193.489 193.489 0 0 1 -12.324 23.243zm7.79-44.9 12.9 12.9h-19.678a31.948 31.948 0 0 1 6.778-12.9zm-23.79 116.9a16 16 0 0 1 0-32s.546 31.415.584 32zm17.237 7.174c-.076-.73-.13-1.481-.2-2.218-.659-7.292-1.012-14.648-1.03-21.922 0-.212-.008-.421-.008-.634v-19.548c2.228-2.766 4.373-5.6 6.489-8.574a206.431 206.431 0 0 0 23.243-42.278h69.019c4.537 10.166 15.768 33.779 29.25 50.832v19.568c0 .225-.008.446-.008.671-.02 7.247-.371 14.576-1.026 21.841-.073.777-.13 1.566-.21 2.337a231.95 231.95 0 0 1 -3.637 24.285 60.11 60.11 0 0 1 -16.776 31.129c-1.277 1.277-2.69 2.48-4.185 3.751a60.273 60.273 0 0 1 -97.276-34.877 232.163 232.163 0 0 1 -3.645-24.363zm22.763 77.494a76.28 76.28 0 0 0 80 .006v26.893l-25.3 8.433h-29.4l-25.3-8.433zm-16 38.432 32 10.666v20.468l-32 10.666zm-.947 81.125a8 8 0 0 0 -7.053-4.225h-31.23l5.494-59.732 17.736-5.068v40.8a8 8 0 0 0 10.53 7.589l5.544-1.848 37.21 77.7-49.973-29.984 11.345-17.019a8 8 0 0 0 .397-8.213zm152.185-4.225h-31.238a8 8 0 0 0 -7.155 11.578l12.422 24.844-51.993 26 38.588-80.7 5.608 1.869a8 8 0 0 0 10.53-7.591v-41.347l17.715 4.724z"/><path d="m296 129.589a12 12 0 1 0 -12 12 12.013 12.013 0 0 0 12-12z"/><path d="m356 141.589a12 12 0 1 0 -12-12 12.013 12.013 0 0 0 12 12z"/><path d="m356.031 182.91-8.062-13.82c-7.528 4.391-18.127 6.91-29.078 6.91h-14.891v16h14.891c13.902 0 27.092-3.228 37.14-9.09z"/><path d="m280 448h16v16h-16z"/><path d="m416 424h16v72h-16z"/><path d="m208 424h16v72h-16z"/><path d="m72 384h16v16h-16z"/><path d="m72 416h16v48h-16z"/></g></svg>