<?xml version="1.0"?>
<svg xmlns="http://www.w3.org/2000/svg" viewBox="0 0 512 512" width="512" height="512"><g id="Filled_outline" data-name="Filled outline"><polygon points="344 208 248 208 248 320 256 320 336 320 344 320 344 208" style="fill:#fec9a3"/><path d="M344,243.705V208H248v35.705a99.844,99.844,0,0,0,96,0Z" style="fill:#feb784"/><path d="M408,268V496H184V268l64-12a48,48,0,0,0,96,0Z" style="fill:#3d4d63"/><path d="M376,104h-8v48h8a24,24,0,0,0,0-48Z" style="fill:#feb784"/><path d="M216.4,104H216a24,24,0,0,0,0,48l8,0V104Z" style="fill:#feb784"/><path d="M368,96v72a72,72,0,0,1-69.33,71.95c-.88.03-1.78.05-2.67.05a72.006,72.006,0,0,1-72-72V96a72.006,72.006,0,0,1,62.14-71.32h.01A72,72,0,0,1,368,96Z" style="fill:#fec9a3"/><path d="M368,96v72a72,72,0,0,1-69.33,71.95A87.892,87.892,0,0,0,336,168V104a88.141,88.141,0,0,0-49.85-79.32A72,72,0,0,1,368,96Z" style="fill:#fec093"/><path d="M224,120h0V88c0-26.51,17.909-48,40-48h0l-1.407,5.068C254.75,73.3,241.537,98.956,224,120Z" style="fill:#743b20"/><path d="M368,120h0V64.985C368,58,360,45.333,344,40h0V64S354.847,98.956,368,120Z" style="fill:#743b20"/><path d="M344,64H256a32,32,0,0,1-32-32V24h81.373A54.626,54.626,0,0,1,344,40h0Z" style="fill:#7a432a"/><path d="M408,300.89V496H184V478.76C273.91,444.43,347.77,402.79,408,300.89Z" style="fill:#374559"/><path d="M432.846,272.659,392,265V216H352a8,8,0,0,0-8,8V496H472V319.836A48,48,0,0,0,432.846,272.659Z" style="fill:#ea4a3b"/><path d="M240,216H200v48l-57.919,12.1a48,48,0,0,0-31.946,21.879L46.433,418.5a39.8,39.8,0,1,0,66.853,43.215l40-85.717L184,320V496h64V224A8,8,0,0,0,240,216Z" style="fill:#ea4a3b"/><path d="M80,480h0a40,40,0,0,1-40-40V328h80V440A40,40,0,0,1,80,480Z" style="fill:#f35244"/><path d="M96,200a25.887,25.887,0,0,0-23.155,14.311L64,232v24H96V232a16,16,0,0,0,0-32Z" style="fill:#feb784"/><path d="M248,232v64a24.006,24.006,0,0,1-24,24H112a24.006,24.006,0,0,1-24-24V232a24.006,24.006,0,0,1,24-24h16l13.63-20.44a8,8,0,0,1,6.65-3.56h39.44a8,8,0,0,1,6.65,3.56L208,208h16a24.017,24.017,0,0,1,24,24Z" style="fill:#2e3e51"/><path d="M248,232v64a24.006,24.006,0,0,1-24,24H112a24,24,0,0,1-21.82-14.01c47.16-9.49,115.06-33.87,143.58-95.91A23.989,23.989,0,0,1,248,232Z" style="fill:#29384a"/><path d="M168,312a48,48,0,1,1,48-48A48.052,48.052,0,0,1,168,312Z" style="fill:#3d4d63"/><circle cx="168" cy="264" r="32" style="fill:#3086cd"/><circle cx="168" cy="264" r="16" style="fill:#348fd9"/><path d="M145.373,286.627a32,32,0,1,0,45.254-45.254Z" style="fill:#3086cd"/><path d="M72,232a32,32,0,0,0-32,32v64h64a16,16,0,0,0,16-16V248a16,16,0,0,0-16-16Z" style="fill:#fec9a3"/><path d="M104,232H72a16,16,0,0,1,16,16v64a16,16,0,0,1-16,16h32a16,16,0,0,0,16-16V248A16,16,0,0,0,104,232Z" style="fill:#fec093"/><path d="M434.32,264.8,400,258.361V216a8,8,0,0,0-8-8H365.238A79.664,79.664,0,0,0,376,168v-8a32,32,0,0,0,0-64V64.985c0-10.825-10.33-25.454-27.723-31.956A62.174,62.174,0,0,0,305.373,16H224a8,8,0,0,0-8,8v8a39.791,39.791,0,0,0,8.374,24.448A62.585,62.585,0,0,0,216,88v8a32,32,0,0,0,0,64v8a79.614,79.614,0,0,0,10.769,40H212.281l-11.254-16.877A15.961,15.961,0,0,0,187.72,184H148.28a15.96,15.96,0,0,0-13.306,7.122L123.719,208h-5.081A23.989,23.989,0,0,0,96,192a33.72,33.72,0,0,0-30.316,18.734l-7.948,15.905A40.057,40.057,0,0,0,32,264V440a47.995,47.995,0,0,0,94.213,12.942l34.206-73.323L176,351.2V488a8,8,0,0,0,8,8l288,0a8,8,0,0,0,8-8V319.836A56.027,56.027,0,0,0,434.32,264.8ZM464,368H416V352H400v16H352V328H464ZM224,336a31.793,31.793,0,0,0,16-4.305V368H192V336Zm-32,48h48v40H192Zm64-88.862a55.875,55.875,0,0,0,80,0V480H256ZM256,240v-2.762a79.717,79.717,0,0,0,80,0V256a40,40,0,0,1-80,0Zm96,144h48v40H352Zm79.372-103.479A40.027,40.027,0,0,1,463.218,312H352V285.766l38.643-12.881ZM384,258.234,352,268.9V224h32ZM344,208a8,8,0,0,0-8,8v1.9A63.668,63.668,0,0,1,296,232c-34.524,0-64-29.048-64-64V122.846A202.957,202.957,0,0,0,261.778,72H338.2c3.553,10.542,11.869,33.6,21.8,50.246V168a63.674,63.674,0,0,1-14.1,40ZM245.064,70.468A192.355,192.355,0,0,1,232,95.306V88A47.055,47.055,0,0,1,236.8,67.076,39.749,39.749,0,0,0,245.064,70.468ZM305.87,56H284.53l-14.4-24h21.34ZM392,128a16.019,16.019,0,0,1-16,16V112A16.019,16.019,0,0,1,392,128Zm-32-63.01v20c-4.086-10.322-7.017-19.179-8-22.228V53.27C357.532,57.726,360,62.849,360,64.985ZM336,56H324.53L310.288,32.265A46.192,46.192,0,0,1,336,43.466ZM251.47,32l14.4,24H256q-1.1,0-2.187-.1H253.8a24.029,24.029,0,0,1-13.87-6.215,7.956,7.956,0,0,0-.81-.637A23.925,23.925,0,0,1,232,32ZM200,128a16.019,16.019,0,0,1,16-16v32A16.019,16.019,0,0,1,200,128ZM128,224a8,8,0,0,0,6.656-3.562L148.28,200h39.434l13.63,20.439A8,8,0,0,0,208,224h16a16.019,16.019,0,0,1,16,16v64a16.019,16.019,0,0,1-16,16H126.624A23.889,23.889,0,0,0,128,312V290.493a48,48,0,1,0-1.438-50.675,24.079,24.079,0,0,0-18.151-15.4,16.059,16.059,0,0,1,2.327-.363C111.155,224.017,128,224,128,224ZM112,368H48V336h64Zm16,16h12.72L128,411.265Zm-16,40H48V384h64Zm24-160a32,32,0,1,1,32,32A32.036,32.036,0,0,1,136,264ZM96,208a7.976,7.976,0,0,1,5.173,1.885,32.027,32.027,0,0,0-16.038,12.74l0,.007q-.435.672-.837,1.368H76.941l3.053-6.109A17.8,17.8,0,0,1,96,208ZM48,264a24.04,24.04,0,0,1,16.762-22.882L104,240a8.009,8.009,0,0,1,8,8v64a8.009,8.009,0,0,1-8,8H48ZM80,472a32.036,32.036,0,0,1-32-32h64A32.036,32.036,0,0,1,80,472Zm68.543-104H128V336h38.09ZM192,480V440h48v40Zm160-40h48v40H352Zm112,40H416V440h48Zm-48-56V384h48v40Z"/><path d="M260,104a12,12,0,1,0,12,12A12.013,12.013,0,0,0,260,104Z"/><path d="M332,104a12,12,0,1,0,12,12A12.013,12.013,0,0,0,332,104Z"/><path d="M286.891,168H272v16h14.891c13.9,0,27.092-3.228,37.14-9.09l-8.062-13.82C308.441,165.481,297.842,168,286.891,168Z"/></g></svg>
