<svg height="512" viewBox="0 0 512 512" width="512" xmlns="http://www.w3.org/2000/svg"><g id="Filled_outline" data-name="Filled outline"><path d="m88 280h16v24h-16z" fill="#d6d6d4"/><path d="m336 280h16v24h-16z" fill="#d6d6d4"/><path d="m488 176v50.58a8 8 0 0 1 -5.03 7.43l-34.97 13.99-80 32h-313.24a30.758 30.758 0 0 1 -30.76-30.76c0-.41.01-.83.03-1.24a30.706 30.706 0 0 1 16.98-26.28l17.36-8.68 14.28-14.06a80.027 80.027 0 0 1 56.12-22.98z" fill="#e0e0de"/><path d="m488 176h-72l40-88h32z" fill="#348fd9"/><path d="m424.898 156.424-8.898 19.576h72v-52.616z" fill="#3086cd"/><path d="m448 248-80 32h-313.24a30.758 30.758 0 0 1 -30.76-30.76c0-.41.01-.83.03-1.24z" fill="#d6d6d4"/><circle cx="96" cy="320" fill="#3d4d63" r="24"/><path d="m144 248h32v96h-32z" fill="#bfbfbd"/><path d="m144 264h32v16h-32z" fill="#e0e0de"/><path d="m144 296h32v16h-32z" fill="#e0e0de"/><path d="m144 328h32v16h-32z" fill="#e0e0de"/><circle cx="344" cy="320" fill="#3d4d63" r="24"/><rect fill="#ebebe9" height="40" rx="20" width="160" x="208" y="240"/><rect fill="#ebebe9" height="32" rx="16" width="80" x="408" y="208"/><circle cx="96" cy="320" fill="#e0e0de" r="8"/><circle cx="344" cy="320" fill="#e0e0de" r="8"/><path d="m144 208h32v40h-32z" fill="#348fd9"/><path d="m144 208h16v40h-16z" fill="#3086cd"/><path d="m88 280h16v8h-16z" fill="#c7c7c5"/><path d="m336 280h16v8h-16z" fill="#c7c7c5"/><path d="m136 448v-98.885a64 64 0 0 1 52.205-62.9l75.795-14.215v-72h48 48v72l75.8 14.212a64 64 0 0 1 52.2 62.9v98.888" fill="#fec9a3"/><path d="m360 250.168v-58.168h-96v58.168a90.2 90.2 0 0 0 96 0z" fill="#feb784"/><path d="m488 349.11v114.89a24.006 24.006 0 0 1 -24 24h-304a24.006 24.006 0 0 1 -24-24v-114.88a64.012 64.012 0 0 1 52.21-62.91l75.79-14.21 48 16 48-16 74.46 13.96 1.33.25a63.994 63.994 0 0 1 52.21 62.9z" fill="#e0e0de"/><path d="m488 349.11v114.89a24.006 24.006 0 0 1 -24 24h-304a24.006 24.006 0 0 1 -24-24v-13.4c116.48-35.28 215.2-76.9 298.46-164.64l1.33.25a63.994 63.994 0 0 1 52.21 62.9z" fill="#d6d6d4"/><path d="m296 298.667v173.333h32v-173.338l-15.988-10.659z" fill="#3d4d63"/><path d="m384 306.582 104 21.418v-40l-93.903-16z" fill="#3d4d63"/><path d="m240 306.582-104 21.418v-40l93.903-16z" fill="#3d4d63"/><g fill="#ebebe9"><path d="m312 288-48-32-23.196 20.349 23.196 43.651z"/><path d="m312.012 288.003 47.988-32.003 23.208 20.352-23.196 43.651z"/><path d="m360 409.6 36 6.4 36-6.4v-25.6h-72z"/><path d="m192 409.6 36 6.4 36-6.4v-25.6h-72z"/></g><path d="m392 408 48-24h48v64h-40l-40 16-200 24h-48a24 24 0 0 1 -24-24v-48z" fill="#feb784"/><path d="m232 408-48-24h-48v64h40l40 16 200 24h48a24 24 0 0 0 24-24v-48z" fill="#fec9a3"/><path d="m392 120h-8v48h8a24 24 0 0 0 0-48z" fill="#feb784"/><path d="m232.4 120h-.4a24 24 0 0 0 0 48h8.48l-.48-48z" fill="#feb784"/><path d="m384 112v64a72.006 72.006 0 0 1 -72 72c-1.73 0-3.44-.06-5.14-.18a72.017 72.017 0 0 1 -66.86-71.82v-64a72.017 72.017 0 0 1 66.86-71.82c1.7-.12 3.41-.18 5.14-.18a72.006 72.006 0 0 1 72 72z" fill="#fec9a3"/><path d="m384 112v64a72.006 72.006 0 0 1 -72 72c-1.73 0-3.44-.06-5.14-.18a87.9 87.9 0 0 0 37.14-71.82v-64a87.688 87.688 0 0 0 -25.78-62.22 89.023 89.023 0 0 0 -11.36-9.6c1.7-.12 3.41-.18 5.14-.18a72.006 72.006 0 0 1 72 72z" fill="#fec093"/><path d="m384 136v-32c0-26.51-6-45.5-24.5-52l-15.5-4c7.843 28.234 22.463 66.956 40 88z" fill="#95573a"/><path d="m240 136v-32c0-26.51 6-45.5 24.5-52l15.5-4c-7.843 28.234-22.463 66.956-40 88z" fill="#95573a"/><path d="m302.891 192h-14.891v16h14.891c13.906 0 27.093-3.226 37.14-9.09l-8.062-13.82c-7.524 4.387-18.125 6.91-29.078 6.91z" fill="#f7a468"/><circle cx="276" cy="140" fill="#7a432a" r="12"/><circle cx="348" cy="140" fill="#7a432a" r="12"/><path d="m384 96h-144v-8a48 48 0 0 1 48-48h48a48 48 0 0 1 48 48z" fill="#7a432a"/><path d="m358.71 116.425a306.917 306.917 0 0 1 -93.42 0c-17.528-2.71-30.145-14.607-30.145-28.425h153.71c0 13.818-12.617 25.715-30.145 28.425z" fill="#3d4d63"/><path d="m396.22 75.73-7.36 12.27h-153.72l-3.56-5.94-3.8-6.33a25.394 25.394 0 0 1 0-26.66c4.67-7.79 13.2-13.48 23.34-15.6l30.6-6.37a149.434 149.434 0 0 1 60.56 0l30.6 6.37c1.02.21 2.02.46 3.01.75a38.377 38.377 0 0 1 10.71 4.92 31.705 31.705 0 0 1 9.62 9.93 25.394 25.394 0 0 1 0 26.66z" fill="#3d4d63"/><path d="m396.22 75.73-7.36 12.27h-153.72l-3.56-5.94c48.28-6.58 107.87-20.12 144.31-47.84a38.377 38.377 0 0 1 10.71 4.92 31.705 31.705 0 0 1 9.62 9.93 25.394 25.394 0 0 1 0 26.66z" fill="#374559"/><path d="m488 80h-32a8 8 0 0 0 -7.283 4.689l-25.012 55.026a32.042 32.042 0 0 0 -31.705-27.715v-7.38a31.715 31.715 0 0 0 4.75-14.222l6.328-10.54a33.408 33.408 0 0 0 0-34.9c-5.825-9.7-16.238-16.739-28.569-19.306l-30.6-6.37a158.008 158.008 0 0 0 -63.828 0l-30.595 6.37c-12.332 2.567-22.745 9.6-28.569 19.306a33.406 33.406 0 0 0 0 34.9l6.328 10.54a31.715 31.715 0 0 0 4.755 14.217v7.385a31.979 31.979 0 0 0 -21.126 56h-82.074a87.56 87.56 0 0 0 -61.785 25.271l-13.327 13.179-16.248 8.086a38.778 38.778 0 0 0 17.36 73.464h33.2v9.376a24 24 0 1 0 16 0v-9.376h24v176a32.036 32.036 0 0 0 32 32s48.637-.019 48.953-.057l103.047-12.366 103.047 12.366c.316.038 48.953.057 48.953.057a32.036 32.036 0 0 0 32-32v-176a8 8 0 0 0 -6.656-7.886l-70.239-11.968 50.434-20.146h2.461a24.027 24.027 0 0 0 24-24v-136a8 8 0 0 0 -8-8zm-392 248a8 8 0 1 1 8-8 8.009 8.009 0 0 1 -8 8zm365.151-232h18.849v72h-51.576zm-85.137 210.938a7.982 7.982 0 0 0 6.373 7.479l97.613 20.103v41.48h-120a8 8 0 0 0 -8 8v17.277l-16 .48v-88.147l19.574 13.049a8 8 0 0 0 11.5-2.9zm56.15 1.4.918-21.575 15.551 2.649-.461 22.223zm-15.876-3.27-22.178-4.568 5.668-19.413 17.4 2.966zm-160.288 95.678-21.994-.687-16.117-8.059h38.111zm8-24.746h-120v-41.48l97.613-20.1a7.985 7.985 0 0 0 6.375-7.5l8.948 16.838a8 8 0 0 0 11.5 2.9l19.564-13.043v88.131l-16-.5v-17.246a8 8 0 0 0 -8-8zm-48-116a11.94 11.94 0 0 1 12-12h28v4.377l-18.758 16.456a7.992 7.992 0 0 0 -8.682-4.719l-10.96 1.866a11.978 11.978 0 0 1 -1.6-5.98zm136-8.281-39.993 26.671-40.007-26.671v-6.481a79.729 79.729 0 0 0 80 0zm-85.083 56.721-16.076-30.253 13.824-12.128 32.9 21.933zm-59.2-3.377-.894-21.014 17.4-2.966 5.667 19.417zm-16.794-18.305.918 21.575-16.008 3.3-.461-22.223zm-38.923-30.758h16v16h-16zm16-16h-16v-24h16zm-8.107 74.911-15.893 3.274v-23.433l15.42-2.627zm144.107-11.963 8-5.336 8 5.331v99.293l-16 .01zm64 97.776v-8.724h38.111l-16.111 8.057zm-10.9-92.28-30.659-20.444 32.9-21.937 13.836 12.132zm-2.445-84.792a64 64 0 0 1 -106.655-47.652v-37.229a128.074 128.074 0 0 0 10.414-15.628 53.991 53.991 0 0 0 5.653 1.188 313.594 313.594 0 0 0 47.933 3.688 313.594 313.594 0 0 0 47.933-3.688 54.006 54.006 0 0 0 5.67-1.192 132.172 132.172 0 0 0 10.397 15.679v37.182a63.863 63.863 0 0 1 -21.35 47.652zm2.837-115.133a297.31 297.31 0 0 1 -90.974 0c-9.665-1.5-17.438-6.318-21.1-12.519h133.165c-3.658 6.2-11.431 11.024-21.096 12.519zm50.508 35.481a16.019 16.019 0 0 1 -16 16v-32a16.019 16.019 0 0 1 16 16zm-173.36-90.816c3.534-5.889 10.135-10.218 18.112-11.878l30.6-6.369a141.865 141.865 0 0 1 57.3 0l30.6 6.369c7.976 1.66 14.577 5.989 18.112 11.878a17.419 17.419 0 0 1 0 18.432l-5.037 8.384h-144.654l-5.034-8.384a17.417 17.417 0 0 1 .001-18.432zm-2.64 74.816v32a16 16 0 0 1 0-32zm-177.2 144a22.778 22.778 0 0 1 -10.2-43.158l17.361-8.64a8.008 8.008 0 0 0 2.06-1.473l2.764-2.729h53.215v-16h-36.531a71.615 71.615 0 0 1 45.331-16h103.607a79.866 79.866 0 0 0 3.293 16h-3.7v16h10.738a79.469 79.469 0 0 0 12.193 16h-26.931a27.979 27.979 0 0 0 -26.593 36.74l-17.407 2.966v-63.706a8 8 0 0 0 -8-8h-32a8 8 0 0 0 -8 8v64zm152.721 208h-47.521a16.019 16.019 0 0 1 -16-16v-8h30.459l38.569 15.431a8 8 0 0 0 2.019.515l29.809 3.577zm272.479-16a16.019 16.019 0 0 1 -16 16h-47.521l-198.479-23.818-39.024-15.613a8.008 8.008 0 0 0 -2.976-.569h-32v-48h38.111l46.311 23.155a8 8 0 0 0 3.328.841l248.25 7.758zm0-56.254-65.509-2.046 27.4-13.7h38.109zm0-89.561-15.893-3.274.473-22.786 15.42 2.627zm-97.15-52.785-14.85-13.025v-19.31a79.872 79.872 0 0 0 23.593-49.065h88.407v17.376a23.889 23.889 0 0 0 -8-1.376h-48a24 24 0 0 0 0 48h2.406zm89.15-33.4h-48a8 8 0 0 1 0-16h48a8 8 0 0 1 0 16z"/><path d="m200 200h16v16h-16z"/><path d="m302.891 192h-14.891v16h14.88.011c13.9 0 27.09-3.228 37.14-9.09l-8.062-13.821c-7.529 4.39-18.127 6.911-29.078 6.911z"/><path d="m276 128a12 12 0 1 0 12 12 12.013 12.013 0 0 0 -12-12z"/><path d="m348 128a12 12 0 1 0 12 12 12.013 12.013 0 0 0 -12-12z"/><path d="m308.422 71.155a8 8 0 0 0 7.156 0l7.214-3.607 15.148-3.787-3.88-15.522-16 4a7.9 7.9 0 0 0 -1.638.606l-4.422 2.211-4.422-2.211a7.9 7.9 0 0 0 -1.638-.606l-16-4-3.88 15.522 15.148 3.787z"/></g></svg>