<svg height="512" viewBox="0 0 512 512" width="512" xmlns="http://www.w3.org/2000/svg"><g id="Filled_outline" data-name="Filled outline"><path d="m202.885 340.52-58.885 27.48-58.885-27.48a96 96 0 0 1 -55.009-95.685l6.655-73.205a125.77 125.77 0 0 0 -12.761-67.63l32-32a96.2 96.2 0 0 0 85.223 1.319l2.777-1.319 2.777 1.319a96.2 96.2 0 0 0 85.223-1.319l32 32a125.77 125.77 0 0 0 -12.761 67.63l6.655 73.205a96 96 0 0 1 -55.009 95.685z" fill="#49648e"/><path d="m251.239 171.63a125.77 125.77 0 0 1 12.761-67.63l-25.084-25.084c-33.573 107.084-129.516 175.165-201.299 212.59a95.879 95.879 0 0 0 47.5 49.014l58.883 27.48 58.885-27.48a96 96 0 0 0 55.009-95.685z" fill="#425b82"/><path d="m98.648 311.523a64.165 64.165 0 0 1 -36.671-63.789l6.648-73.211a157.671 157.671 0 0 0 -7.016-62.878l2.227-2.227a128.554 128.554 0 0 0 36.117 5.207 129.051 129.051 0 0 0 44.047-7.816 129.115 129.115 0 0 0 44.047 7.816 128.554 128.554 0 0 0 36.117-5.207l2.227 2.227a157.683 157.683 0 0 0 -7.016 62.882l6.648 73.2a64.168 64.168 0 0 1 -36.671 63.793l-45.352 21.168z" fill="#354766"/><path d="m144 256-10.681-27.751-27.812 8.737 14.493-25.868-24-16.856 28.753-4.506-2.115-29.756 21.362 20.249 21.362-20.249-2.115 29.756 28.753 4.506-24 16.856 14.493 25.868-27.812-8.737z" fill="#ffb531"/><path d="m133.343 228.311 10.657 27.689 10.681-27.751 27.812 8.737-14.493-25.868 24-16.856-19.71-3.089a405.44 405.44 0 0 1 -38.947 37.138z" fill="#ffa912"/><path d="m136 448v-98.885a64 64 0 0 1 52.205-62.9l75.795-14.215v-72h48 48v72l75.8 14.212a64 64 0 0 1 52.2 62.9v98.888" fill="#fec9a3"/><path d="m360 248.631v-64.631h-96v64.631a82.641 82.641 0 0 0 96 0z" fill="#feb784"/><path d="m488 349.11v114.89a32 32 0 0 1 -32 32h-288a31.981 31.981 0 0 1 -32-32v-114.88a64.012 64.012 0 0 1 52.21-62.91l75.79-14.21 48 16 48-16 75.79 14.21a63.994 63.994 0 0 1 52.21 62.9z" fill="#3c5174"/><path d="m488 349.11v114.89a32 32 0 0 1 -32 32h-288a32.008 32.008 0 0 1 -31.76-28.07c128.14-36.01 236.27-78.17 327.06-169.33a63.956 63.956 0 0 1 24.7 50.51z" fill="#354766"/><path d="m392 120h-8v48h8a24 24 0 0 0 0-48z" fill="#feb784"/><path d="m232.4 120h-.4a24 24 0 0 0 0 48h8.48l-.48-48z" fill="#feb784"/><path d="m384 112v64a72 72 0 0 1 -69.33 71.95c-.88.03-1.78.05-2.67.05a72.006 72.006 0 0 1 -72-72v-64a72 72 0 0 1 144 0z" fill="#fec9a3"/><path d="m384 112v64a72 72 0 0 1 -69.33 71.95 87.892 87.892 0 0 0 37.33-71.95v-48a88.076 88.076 0 0 0 -62.77-84.32 72.019 72.019 0 0 1 94.77 68.32z" fill="#fec093"/><path d="m384 136v-32c0-26.51-6-45.5-24.5-52l-15.5-4c7.843 28.234 22.463 66.956 40 88z" fill="#e0e0de"/><path d="m240 136v-32c0-26.51 6-45.5 24.5-52l15.5-4c-7.843 28.234-22.463 66.956-40 88z" fill="#e0e0de"/><path d="m312 288-48-32-23.196 20.349 23.196 43.651z" fill="#49648e"/><path d="m312.012 288.003 47.988-32.003 23.208 20.352-23.196 43.651z" fill="#49648e"/><path d="m296 298.667v173.333h32v-173.338l-15.988-10.659z" fill="#2e3e51"/><g fill="#49648e"><path d="m402.612 310.827 85.388 17.173v-40l-77.391-12.234a17.982 17.982 0 0 0 -21.259 12.491 17.981 17.981 0 0 0 13.262 22.57z"/><path d="m221.388 310.827-85.388 17.173v-40l77.391-12.234a17.982 17.982 0 0 1 21.259 12.491 17.981 17.981 0 0 1 -13.262 22.57z"/><path d="m360 393.6 36 6.4 36-6.4v-25.6h-72z"/><path d="m192 393.6 36 6.4 36-6.4v-25.6h-72z"/></g><path d="m392 408 48-24h48v64h-40l-40 16-200 24h-48a24 24 0 0 1 -24-24v-48z" fill="#feb784"/><path d="m232 408-48-24h-48v64h40l40 16 200 24h48a24 24 0 0 0 24-24v-48z" fill="#fec9a3"/><path d="m368 208h-48l-8-16-8 16h-48a40 40 0 0 1 40-40h32a40 40 0 0 1 40 40z" fill="#e0e0de"/><path d="m388.86 88c0 6.91-3.16 13.34-8.5 18.38a40.543 40.543 0 0 1 -21.65 10.04 305.968 305.968 0 0 1 -66.06 2.96c-9.17-.57-18.31-1.56-27.36-2.96a40.543 40.543 0 0 1 -21.65-10.04c-5.34-5.04-8.5-11.47-8.5-18.38z" fill="#29384a"/><path d="m404.23 62.4-15.37 25.6h-153.72l-15.37-25.6 31.35-28.93s12.67-2.37 26.61-4.73 29.17-4.74 34.27-4.74c8.81 0 47.76 7.05 58.26 8.98 1.67.31 2.62.49 2.62.49 10.14 2.12 31.35 28.93 31.35 28.93z" fill="#3c5174"/><path d="m404.23 62.4-15.37 25.6h-117.73c37.41-12.28 70.3-28.43 99.13-55.02 1.67.31 2.62.49 2.62.49 10.14 2.12 31.35 28.93 31.35 28.93z" fill="#354766"/><path d="m388.86 88c0 6.91-3.16 13.34-8.5 18.38a40.543 40.543 0 0 1 -21.65 10.04 305.968 305.968 0 0 1 -66.06 2.96c21.21-7.6 40.1-16.71 56.89-31.38z" fill="#22303d"/><path d="m328 80-16 8-16-8v-24h32z" fill="#ffb531"/><path d="m296 72v8l16 8 16-8v-8l-16 8z" fill="#ffa912"/><path d="m91.4 200.809 18.087 12.7-10.96 19.567a8 8 0 0 0 9.377 11.542l20.647-6.486 7.983 20.742a8 8 0 0 0 14.932 0l7.983-20.742 20.647 6.486a8 8 0 0 0 9.377-11.542l-10.962-19.564 18.087-12.7a8 8 0 0 0 -3.36-14.45l-21.491-3.368 1.595-22.424a8 8 0 0 0 -13.484-6.373l-15.858 15.029-15.858-15.032a8 8 0 0 0 -13.484 6.373l1.595 22.424-21.491 3.368a8 8 0 0 0 -3.36 14.45zm34.59-3.149a8 8 0 0 0 6.741-8.471l-.655-9.218 6.418 6.084a8 8 0 0 0 11.008 0l6.418-6.084-.655 9.218a8 8 0 0 0 6.741 8.471l9.185 1.44-7.791 5.471a8 8 0 0 0 -2.381 10.457l4.642 8.285-8.585-2.7a8 8 0 0 0 -9.863 4.758l-3.213 8.357-3.215-8.353a7.994 7.994 0 0 0 -9.863-4.758l-8.585 2.7 4.642-8.285a8 8 0 0 0 -2.381-10.457l-7.791-5.471z"/><path d="m489.249 280.1-77.149-12.2a25.905 25.905 0 0 0 -17.663 2.458l-7.624-1.486-18.813-16.497v-19.316a79.748 79.748 0 0 0 24-57.059 32 32 0 0 0 0-64v-7.38a31.715 31.715 0 0 0 4.75-14.222l14.335-23.875a8 8 0 0 0 -.584-9.08c-6.918-8.748-24.273-29.357-35.992-31.8l-.159-.032c-5.262-.984-51.706-9.611-62.35-9.611s-57.088 8.627-62.35 9.61a8.008 8.008 0 0 0 -3.95 1.99l-31.351 28.921a8 8 0 0 0 -1.434 10l2.29 3.813a87.959 87.959 0 0 1 -64.965-4.274l-.114-.06-2.8-1.28a8 8 0 0 0 -6.652 0l-2.8 1.28-.127.059a88.166 88.166 0 0 1 -37.827 8.581 88.85 88.85 0 0 1 -40.276-9.762 8.005 8.005 0 0 0 -9.3 1.465l-32 32a8 8 0 0 0 -1.492 9.246 117.624 117.624 0 0 1 11.982 63.28l-6.722 73.219a104.528 104.528 0 0 0 59.632 103.725l46.256 21.528v94.659a32.036 32.036 0 0 0 32 32s48.637-.019 48.953-.057l103.047-12.366 103.046 12.366c.316.038 48.953.057 48.953.057a32.036 32.036 0 0 0 32-32v-176a8 8 0 0 0 -6.75-7.9zm-233.249 106.8-28.007 4.979-15.974-2.811-12.019-6.012v-7.056h56zm8-26.9h-72a8 8 0 0 0 -8 8v8h-40v-26.88a56.344 56.344 0 0 1 2.033-14.978l76.933-15.473c.067-.013.135-.027.2-.043a25.916 25.916 0 0 0 19.839-21.084l13.929 26.212a8 8 0 0 0 11.5 2.9l19.566-13.039v88.131l-21.177-.662a8 8 0 0 0 5.177-7.484v-25.6a8 8 0 0 0 -8-8zm-191.731-240.2a135.691 135.691 0 0 0 27.651 2.84 138.478 138.478 0 0 0 44.08-7.361 138.478 138.478 0 0 0 44.08 7.361 133.953 133.953 0 0 0 21.844-1.778 31.929 31.929 0 0 0 1 47.181c.106 2.565.259 4.928.47 7.24l6.639 73.2a56.044 56.044 0 0 1 -1.505 18.856 26 26 0 0 0 -4.627.568l-77.149 12.2a8 8 0 0 0 -6.752 7.893v28.407l-25.975-12.135a56.032 56.032 0 0 1 -32.057-55.79l6.639-73.206a164.887 164.887 0 0 0 -4.338-55.476zm231.731-44.744v-11.056h16v11.056l-8 4zm74.583 20.944c-3.658 6.2-11.431 11.024-21.1 12.519a297.31 297.31 0 0 1 -90.974 0c-9.665-1.5-17.438-6.318-21.1-12.519zm-74.583 120a8 8 0 0 0 7.155-4.422l.845-1.689.845 1.689a8 8 0 0 0 7.155 4.422h41.907a63.89 63.89 0 0 1 -99.814 0zm-38.987-16a32.054 32.054 0 0 1 30.987-24h32a32.054 32.054 0 0 1 30.987 24h-34.043l-5.789-11.578a8 8 0 0 0 -14.31 0l-5.789 11.578zm90.561 126.659a8 8 0 0 0 11.5-2.9l13.926-26.197a25.918 25.918 0 0 0 19.836 21.064c.067.016.135.03.2.043l76.933 15.473a56.344 56.344 0 0 1 2.031 14.978v26.88h-40v-8a8 8 0 0 0 -8-8h-72a8 8 0 0 0 -8 8v25.6a8 8 0 0 0 5.177 7.484l-21.177.662v-88.136zm56.407 62.406-15.974 2.811-28.007-4.976v-10.9h56v7.056zm-120.411-97.086c-.1.067-.192.147-.289.219l-24.364 16.242-16.076-30.253 13.824-12.128 32.9 21.933zm-35.57-39.602-18.78 16.475-4.821.9a72.173 72.173 0 0 0 1.568-22.719l-6.473-71.365a32.2 32.2 0 0 0 4.506.332 79.748 79.748 0 0 0 24 57.059zm-112 65.854v-23.4l70.641-11.167q.266-.042.53-.1a9.992 9.992 0 0 1 11.8 6.934 9.979 9.979 0 0 1 -7.274 12.507zm88-158.231a16 16 0 0 1 0-32zm72 142.953 8-5.336 8 5.331v99.293l-16 .01zm114.207 100.928c.027-.014.052-.031.079-.044.05-.026.1-.056.146-.082.15-.081.3-.159.446-.25l23.011-11.505h38.111v15.746l-65.446-2.046zm-9.378-120.315q.264.06.53.1l70.641 11.169v23.4l-75.7-15.224a9.98 9.98 0 0 1 -7.27-12.511 10 10 0 0 1 11.799-6.934zm-51.729 24.878-24.43-16.287c-.081-.058-.153-.124-.235-.178l-5.994-3.979 32.9-21.937 13.836 12.132zm-5.1-56.725-39.993 26.671-40.007-26.671v-6.482a79.71 79.71 0 0 0 80 0zm24-75.719a63.827 63.827 0 0 1 -2.357 17.166 48.077 48.077 0 0 0 -45.643-33.166h-32a48.077 48.077 0 0 0 -45.643 33.166 63.827 63.827 0 0 1 -2.357-17.166v-37.229a128.074 128.074 0 0 0 10.414-15.628 54.045 54.045 0 0 0 5.653 1.188 313.594 313.594 0 0 0 47.933 3.688 313.594 313.594 0 0 0 47.933-3.688 54.006 54.006 0 0 0 5.67-1.192 132.172 132.172 0 0 0 10.397 15.679zm32-32a16.019 16.019 0 0 1 -16 16v-32a16.019 16.019 0 0 1 16 16zm-153.148-103.083c19.535-3.617 50.513-8.917 57.148-8.917 6.879 0 39.942 5.7 59.271 9.312 3.594.913 13.819 10.6 23.2 21.787l-10.144 16.901h-48.327v-24a8 8 0 0 0 -8-8h-32a8 8 0 0 0 -8 8v24h-48.327l-9.69-16.136zm-166.345 292.395a88.466 88.466 0 0 1 -50.46-87.781l6.722-73.219a133.732 133.732 0 0 0 -11.123-66.644l24.017-24.017a104.825 104.825 0 0 0 42.257 8.989 104.264 104.264 0 0 0 44.08-9.835 103.948 103.948 0 0 0 79.621 3.545l3.628 6.043a31.715 31.715 0 0 0 4.751 14.222v1.351l-2.183-2.183a8 8 0 0 0 -8-1.994c-2.4.732-5.074 1.407-8.19 2.063l-.11.023a115.944 115.944 0 0 1 -25.442 2.765 122.354 122.354 0 0 1 -41.346-7.359 8.014 8.014 0 0 0 -5.468 0 122.354 122.354 0 0 1 -41.341 7.359 119.661 119.661 0 0 1 -33.82-4.874 8 8 0 0 0 -7.917 2.017l-2.241 2.24a8 8 0 0 0 -1.95 8.133 148.734 148.734 0 0 1 6.68 59.681l-6.638 73.184a72.062 72.062 0 0 0 41.22 71.747l34.2 15.979a72.248 72.248 0 0 0 -1.454 14.373v2.573zm119.014 146.688h-47.521a16.019 16.019 0 0 1 -16-16v-8h30.459l38.569 15.431a8 8 0 0 0 2.019.515l29.809 3.577zm256.479 0h-47.522l-198.478-23.818-39.024-15.613a8.008 8.008 0 0 0 -2.976-.569h-32v-48h38.111l46.311 23.155a8 8 0 0 0 3.328.841l248.25 7.758v40.246a16.019 16.019 0 0 1 -16 16z"/><path d="m276 128a12 12 0 1 0 12 12 12.013 12.013 0 0 0 -12-12z"/><path d="m348 128a12 12 0 1 0 12 12 12.013 12.013 0 0 0 -12-12z"/></g></svg>