<svg height="512" viewBox="0 0 512 512" width="512" xmlns="http://www.w3.org/2000/svg"><g id="Filled_outline" data-name="Filled outline"><path d="m248 248h-224v-48l80-16 8-48h136z" fill="#d4bd81"/><path d="m144 136h-32l-8 48h40 56v-48z" fill="#e0e0de"/><path d="m200 184h23.667l-47.667 64h-40v-64z" fill="#c7ae71"/><circle cx="80" cy="248" fill="#3d4d63" r="32"/><path d="m80 236a12 12 0 1 0 12 12 12.013 12.013 0 0 0 -12-12z" fill="#e0e0de"/><path d="m109.714 184h34.286 56v-48h-25.143z" fill="#d6d6d4"/><path d="m144 72h48v32h-48z" fill="#d4bd81"/><path d="m80 80h64v16h-64z" fill="#c7ae71"/><path d="m160 104h16v32h-16z" fill="#c7ae71"/><path d="m160 104h16v16h-16z" fill="#ba9f63"/><path d="m376 306.82v69.18h-144v-69.18l16.93-1.99a8.014 8.014 0 0 0 7.07-7.94v-64.89h96v64.89a8.014 8.014 0 0 0 7.07 7.94z" fill="#fec9a3"/><path d="m354.43 302.62a81.854 81.854 0 0 1 -100.86 0 7.936 7.936 0 0 0 2.43-5.73v-64.89h96v64.89a7.936 7.936 0 0 0 2.43 5.73z" fill="#fec093"/><path d="m488 496v-133.316a48 48 0 0 0 -42.392-47.671l-73.8-8.683-67.808 37.67-67.806-37.67-73.8 8.683a48 48 0 0 0 -42.394 47.671v133.316" fill="#ab925b"/><path d="m488 362.68v133.32h-368v-133.32a48 48 0 0 1 42.39-47.67l73.8-8.68 67.81 37.67 67.81-37.67 73.8 8.68a48 48 0 0 1 42.39 47.67z" fill="#b3995f"/><path d="m488 362.68v133.32h-291.74c99.74-26.13 211.97-77.59 259.78-178.56a48.01 48.01 0 0 1 31.96 45.24z" fill="#ab925b"/><path d="m216 120h176v56h-176z" fill="#ab925b"/><path d="m376 144v56a72 72 0 1 1 -144 0v-56a72.017 72.017 0 0 1 66.86-71.82c1.7-.12 3.41-.18 5.14-.18a72.006 72.006 0 0 1 72 72z" fill="#fec9a3"/><path d="m376 144v56a72.055 72.055 0 0 1 -87.75 70.27 87.975 87.975 0 0 0 47.75-78.27v-48a87.688 87.688 0 0 0 -25.78-62.22 89.023 89.023 0 0 0 -11.36-9.6c1.7-.12 3.41-.18 5.14-.18a72.006 72.006 0 0 1 72 72z" fill="#fec093"/><path d="m232 144h144v24h-144z" fill="#fec093"/><path d="m269.8 124.613a174.36 174.36 0 0 0 68.4 0l5.8-1.159 32 36.546v-16a72 72 0 0 0 -144 0v16l32-36.546z" fill="#95573a"/><path d="m424 176h-32l-16-32h-144l-16 32h-32a120 120 0 0 1 24-72v-3.75a76.259 76.259 0 0 1 76.25-76.25h39.5a76.179 76.179 0 0 1 37.83 10.05 76.264 76.264 0 0 1 38.42 66.2v3.75a120 120 0 0 1 24 72z" fill="#c7ae71"/><path d="m424 176h-32l-16-32h-103.83c39.88-21.22 74.52-49.46 104.49-98.64a76.167 76.167 0 0 1 23.34 54.89v3.75a120 120 0 0 1 24 72z" fill="#c2a667"/><path d="m400 100.25v3.75h-192v-3.75a76.177 76.177 0 0 1 5.42-28.25h181.15a75.946 75.946 0 0 1 5.43 28.25z" fill="#d4bd81"/><path d="m223.1 161.8a296.494 296.494 0 0 0 43.8-17.8h-34.9z" fill="none"/><path d="m408 176-2.01 32.19a102.189 102.189 0 0 1 -203.98 0l-2.01-32.19h32v24a72.011 72.011 0 0 0 142.88 12.74 73.173 73.173 0 0 0 1.12-12.74v-24z" fill="#b3995f"/><path d="m404.16 222.08a101.281 101.281 0 0 1 -11.79 31.07l-29.88-11.16a71.75 71.75 0 0 0 12.39-29.25z" fill="#d4bd81"/><path d="m200 360h208v136h-208z" fill="#c2a667"/><path d="m200 296h48v64h-48z" fill="#c7ae71"/><path d="m200 328h48v32h-48z" fill="#d4bd81"/><path d="m360 296h48v64h-48z" fill="#c7ae71"/><path d="m360 328h48v32h-48z" fill="#d4bd81"/><path d="m440 368h48v80h-48z" fill="#c7ae71"/><path d="m440 368h48v32h-48z" fill="#d4bd81"/><path d="m120 368h48v80h-48z" fill="#c7ae71"/><path d="m120 368h48v32h-48z" fill="#d4bd81"/><path d="m408 496v-72l-168 72z" fill="#ba9f63"/><path d="m232 392h144v32h-144z" fill="#d4bd81"/><path d="m232 456h144v32h-144z" fill="#d4bd81"/><path d="m232 424h144v16h-144z" fill="#ba9f63"/><path d="m232 488h144v8h-144z" fill="#ba9f63"/><circle cx="80" cy="248" r="12"/><path d="m16 304h64v16h-64z"/><path d="m40 336h56v16h-56z"/><path d="m16 408h32v16h-32z"/><path d="m64 408h16v16h-16z"/><path d="m32 448h64v16h-64z"/><path d="m128 280h48v16h-48z"/><path d="m440 256h56v16h-56z"/><path d="m472 288h24v16h-24z"/><path d="m446.529 307.1-30.529-3.578v-7.522a8 8 0 0 0 -8-8h-35.47a110.055 110.055 0 0 0 41.443-79.313l1.543-24.687h8.484a8 8 0 0 0 8-8 128.853 128.853 0 0 0 -24-74.618v-1.133a84.252 84.252 0 0 0 -84.249-84.249h-39.5a84.251 84.251 0 0 0 -84.251 84.249v-28.249a8 8 0 0 0 -8-8h-48a8 8 0 0 0 -8 8v8h-56v16h56v8a8 8 0 0 0 8 8h16v16h-48a8 8 0 0 0 -7.892 6.685l-7.092 42.553-74.585 14.917a8 8 0 0 0 -6.431 7.845v48a8 8 0 0 0 8 8h16.805a40 40 0 0 0 78.39 0h88.9a110.972 110.972 0 0 0 27.375 32h-35.47a8 8 0 0 0 -8 8v7.521l-30.521 3.572a55.954 55.954 0 0 0 -49.479 55.627v133.28h16v-40h40a8 8 0 0 0 8-8v-80a8 8 0 0 0 -8-8h-39.9a39.945 39.945 0 0 1 35.228-37.015l28.672-3.355v176.37h16v-128h192v128h16v-176.37l28.679 3.357a39.941 39.941 0 0 1 35.221 37.013h-39.9a8 8 0 0 0 -8 8v80a8 8 0 0 0 8 8h40v40h16v-133.28a55.95 55.95 0 0 0 -49.471-55.62zm-318.529 132.9v-32h32v32zm32-48h-32v-16h32zm240-72h-32v-16h32zm-136.021-15.55a109.847 109.847 0 0 0 80.042 0 8 8 0 0 0 3.53 6.2l-43.551 24.198-43.551-24.2a8 8 0 0 0 3.53-6.198zm103.03-93.63a63.116 63.116 0 0 1 -10.961 26.318c-.072.1-.129.207-.195.31a63.969 63.969 0 0 1 -115.853-37.448v-48h128s-.936 58.5-.991 58.82zm13.744 11.692 13.887 4.565a93.448 93.448 0 0 1 -5.578 15.008l-14.354-4.719a79.469 79.469 0 0 0 6.045-14.854zm17.247-14.824c-.075 1.192-.178 2.376-.3 3.555l-14.005-4.6c.181-2.192.3-4.4.3-6.639v-16.004h15.484zm-6.137-111.688h-175.726a68.044 68.044 0 0 1 2.954-16h169.818a68.044 68.044 0 0 1 2.954 16zm-141.474-55.008a68.352 68.352 0 0 1 33.86-8.992h39.5a68.153 68.153 0 0 1 57.8 32h-155.1a68.2 68.2 0 0 1 23.94-23.008zm-38.298 71.008h183.818a112.912 112.912 0 0 1 19.8 56h-18.765l-13.789-27.578a8 8 0 0 0 -7.155-4.422h-144a8 8 0 0 0 -7.155 4.422l-13.789 27.578h-18.764a112.912 112.912 0 0 1 19.799-56zm-60.091 32h28.13a127.618 127.618 0 0 0 -4.13 32h-24zm0-64h32v16h-32zm24 32h16a8 8 0 0 0 1.257-.108 128.617 128.617 0 0 0 -7.863 16.108h-9.394zm-40 32v32h-22.556l5.333-32zm-56 128a24 24 0 1 1 24-24 24.028 24.028 0 0 1 -24 24zm0-64a40.068 40.068 0 0 0 -39.195 32h-8.805v-33.441l72.793-14.559h31.207v48h-16.8a40.068 40.068 0 0 0 -39.2-32zm72 32v-48h40v21.333l-20 26.667zm40 0 6.021-8.028q1.164 4.082 2.627 8.028zm18-32.312-1.484-23.688h15.484v16a79.962 79.962 0 0 0 141.445 51.163l15.378 5.056a94.145 94.145 0 0 1 -170.823-48.531zm30 96.312v16h-32v-16zm-32 48v-16h32v16zm48 0v-25.522l44.114 24.515a8 8 0 0 0 7.772 0l44.114-24.515v25.522zm112 0v-16h32v16zm80 24h32v16h-32zm0 64v-32h32v32z"/><path d="m256 164a12 12 0 1 0 12-12 12.013 12.013 0 0 0 -12 12z"/><path d="m328 164a12 12 0 1 0 12-12 12.013 12.013 0 0 0 -12 12z"/><path d="m294.891 208h-14.891v16h14.891c13.9 0 27.09-3.229 37.14-9.09l-8.062-13.82c-7.529 4.394-18.127 6.91-29.078 6.91z"/><path d="m232 432h144a8 8 0 0 0 8-8v-32a8 8 0 0 0 -8-8h-144a8 8 0 0 0 -8 8v32a8 8 0 0 0 8 8zm8-32h128v16h-128z"/><path d="m224 488a8 8 0 0 0 8 8h144a8 8 0 0 0 8-8v-32a8 8 0 0 0 -8-8h-144a8 8 0 0 0 -8 8zm16-24h128v16h-128z"/></g></svg>