<svg height="512" viewBox="0 0 512 512" width="512" xmlns="http://www.w3.org/2000/svg"><g id="Filled_outline" data-name="Filled outline"><path d="m446.788 282.112-70.788-10.112v-64h-80v64l-70.173 11.7a54.411 54.411 0 0 0 -38.577 27.174l-19.25 38.459 59.646 34.437 12.354-23.77v136h192v-96h56v-70.37a48 48 0 0 0 -41.212-47.518z" fill="#fec9a3"/><path d="m360 272.009a47.789 47.789 0 0 0 16-2.79v-61.219h-80v61.219a47.789 47.789 0 0 0 16 2.79z" fill="#feb784"/><path d="m488 329.63v70.37h-56v96h-192v-136l-12.35 23.77-59.65-34.44 19.25-38.46a54.4 54.4 0 0 1 38.58-27.17l70.17-11.7v-6.59l16 38.59 24 64 24-64 16-37.94v5.94l70.79 10.11a48 48 0 0 1 41.21 47.52z" fill="#c2a667"/><path d="m488 329.63v70.37h-56v96h-192v-20.15c92.27-40.06 168.55-79.76 231.21-182.69a47.967 47.967 0 0 1 16.79 36.47z" fill="#ba9f63"/><path d="m264 344 48-40-16-40-32 12.923z" fill="#d4bd81"/><path d="m360 304 48 40v-67.077l-32-12.923z" fill="#d4bd81"/><path d="m354 320h-36l18 48z" fill="#ebebe9"/><path d="m124.725 439.021a32.191 32.191 0 0 0 53.663 35.5l49.258-90.748-59.646-34.44z" fill="#feb784"/><path d="m432 400h56v96h-56z" fill="#fec9a3"/><path d="m368 384h64v72h-64z" fill="#d4bd81"/><path d="m368 384h64v72h-64z" fill="#d4bd81"/><path d="m416 104h-8v48h8a24 24 0 1 0 0-48z" fill="#feb784"/><path d="m256.4 104h-.4a24 24 0 0 0 0 48h8v-48z" fill="#feb784"/><path d="m408 104v48a72 72 0 0 1 -144 0v-48a72.012 72.012 0 0 1 68.48-71.92c1.16-.05 2.34-.08 3.52-.08a72.006 72.006 0 0 1 72 72z" fill="#fec9a3"/><path d="m408 104v48a72.031 72.031 0 0 1 -56.8 70.39 87.567 87.567 0 0 0 8.8-38.39v-88a87.688 87.688 0 0 0 -25.78-62.22c-.57-.57-1.15-1.14-1.74-1.7 1.16-.05 2.34-.08 3.52-.08a72.006 72.006 0 0 1 72 72z" fill="#fec093"/><path d="m408 104v104a48 48 0 0 1 -48 48h-48a48 48 0 0 1 -48-48v-104l22.05 58.81a8.005 8.005 0 0 0 7.49 5.19h84.92a8.005 8.005 0 0 0 7.49-5.19z" fill="#95573a"/><path d="m408 72v40l-3.38-1.69a51.778 51.778 0 0 1 -28.62-46.31v-8h-14.39a53.295 53.295 0 0 0 -41.61 20c-10.11 12.64-25.42 28-41.61 28h-14.39v-32a48 48 0 0 1 48-48h38.11a28.939 28.939 0 0 1 25.89 16 32 32 0 0 1 32 32z" fill="#95573a"/><path d="m408 72v40l-3.38-1.69a51.778 51.778 0 0 1 -28.62-46.31v-8h-14.39a53.346 53.346 0 0 0 -10.67 1.08 88.339 88.339 0 0 0 -28.35-33.08h27.52a28.939 28.939 0 0 1 25.89 16 32 32 0 0 1 32 32z" fill="#8f4d2e"/><path d="m408 104v104a48 48 0 0 1 -48 48h-37.41a87.842 87.842 0 0 0 37.41-72v-16h18.46a8.005 8.005 0 0 0 7.49-5.19z" fill="#8f4d2e"/><path d="m207.833 377.206a16 16 0 1 0 -22.627 22.627l11.314 11.314 22.627-22.627z" fill="#7a432a"/><path d="m219.147 388.52-22.627 22.627 84.853 84.853h22.627v-22.627z" fill="#95573a"/><path d="m260.8 432h-108.8a32 32 0 0 0 0 64h108.8a11.2 11.2 0 0 0 11.2-11.2v-41.6a11.2 11.2 0 0 0 -11.2-11.2z" fill="#fec9a3"/><path d="m260.8 480h-108.8a31.926 31.926 0 0 1 -30.869-24 31.613 31.613 0 0 0 30.869 40h108.8a11.2 11.2 0 0 0 11.2-11.2v-16a11.2 11.2 0 0 1 -11.2 11.2z" fill="#fec093"/><path d="m112 456h-32l-56-144h32z" fill="#d6d6d4"/><path d="m24 312h32l56-144h-32z" fill="#d6d6d4"/><path d="m24 456h128v32h-128z" fill="#e0e0de"/><path d="m112 456h40v32h-40z" fill="#d6d6d4"/><path d="m88 424a24 24 0 0 0 -24 24v8h48v-8a24 24 0 0 0 -24-24z" fill="#c7c7c5"/><circle cx="40" cy="312" fill="#c7c7c5" r="16"/><path d="m222.11 171.15-15.67 15.67-69.19 69.18-22.62-67.88-20.12-20.12-19.48-19.48 39.6-39.6 39.6 39.6z" fill="#e0e0de"/><path d="m222.11 171.15-15.67 15.67-68.59-22.82-39.09-39.21 15.87-15.87 39.6 39.6z" fill="#d6d6d4"/><path d="m114.627 188.284-28.284-28.284-8.485 8.485a20 20 0 0 0 0 28.285 20 20 0 0 0 28.284 0z" fill="#c7c7c5"/><circle cx="296" cy="128" fill="#e0e0de" r="24"/><circle cx="376" cy="128" fill="#e0e0de" r="24"/><path d="m406.015 384a307.977 307.977 0 0 1 -38.015 45.66v26.34h64v-72z" fill="#c7ae71"/><path d="m432 400h56v16h-56z" fill="#fec093"/><path d="m447.931 274.16-39.315-5.616-23.783-9.6a55.936 55.936 0 0 0 31.647-50.464v-47.98h.02a32 32 0 0 0 0-64h-.02v-24.02a40.052 40.052 0 0 0 -35.256-39.709 36.7 36.7 0 0 0 -30.613-16.271h-38.111a56.063 56.063 0 0 0 -56 56v24a32 32 0 0 0 -.02 64v47.98a56.03 56.03 0 0 0 31.285 50.22l-26.765 10.805a8.029 8.029 0 0 0 -.738.365l-35.742 5.919a61.854 61.854 0 0 0 -44.246 31.222q-.078.141-.15.285l-62.464 127.966-.012.019c-.05.083-.108.183-.165.279a32.189 32.189 0 0 0 -9.829-12.786l-43.071-110.774 40.817-104.959a27.877 27.877 0 0 0 5.721-4.137l18.543 55.626a8 8 0 0 0 13.247 3.127l84.853-84.852a8 8 0 0 0 -3.127-13.247l-66.091-22.031-38.263-38.262a8 8 0 0 0 -11.314 0l-39.6 39.6a8 8 0 0 0 0 11.315l5.657 5.656-2.826 2.826a27.975 27.975 0 0 0 -7.917 23.669l-43.083 110.779a23.925 23.925 0 0 0 0 29.777l40.183 103.38a31.811 31.811 0 0 0 -5.383 17.733h-32a8 8 0 0 0 -8 8v32a8 8 0 0 0 8 8h236.8a19.1 19.1 0 0 0 12.547-4.7l2.357 2.357a8 8 0 0 0 5.656 2.343h22.64a8 8 0 0 0 8-8v-24h-.124a7.992 7.992 0 0 0 -2.219-4.3l-30.7-30.7a19.27 19.27 0 0 0 -11.957-11.953l-19-19v-38.047a8 8 0 0 0 -14.862-4.112l-10.228 17.068-9.413-9.413a23.918 23.918 0 0 0 -17.017-7.063h-.132l-17.817-10.28 15.826-31.587a45.948 45.948 0 0 1 32.789-23.041l28.854-4.778v57.206a8 8 0 0 0 13.121 6.146l39.345-32.788 19.534 52.091v126.551h16v-126.551l19.534-52.091 39.345 32.788a8 8 0 0 0 13.121-6.146v-58.238l29.646 4.238a40.293 40.293 0 0 1 34.354 39.6v62.4h-40v-32h-16v16h-56a8 8 0 0 0 -8 8v72a8 8 0 0 0 8 8h56v32h16v-88h40v88h16v-166.4a56.385 56.385 0 0 0 -48.069-55.44zm-204.606 141.84h-22.65l-12.847-12.847 11.326-11.325zm-98.965.75 27.088-56.128 7.036 4.093a24.022 24.022 0 0 0 1.059 32.782l18.5 18.5s-51.191.267-53.683.753zm52.154-24.911-5.657-5.656a8.017 8.017 0 0 1 0-11.327 7.371 7.371 0 0 1 4.065-2.144 8.049 8.049 0 0 0 1.579-.232 8.024 8.024 0 0 1 5.682 2.377l5.655 5.656zm-122.3 27.287-32.339-83.206a23.869 23.869 0 0 0 12.89-5.02l33.089 85.1a31.791 31.791 0 0 0 -13.638 3.126zm12.866-209.118-32.314 83.092a23.86 23.86 0 0 0 -12.889-5.02l32.589-83.792a27.826 27.826 0 0 0 12.614 5.72zm-55.08 101.992a8 8 0 1 1 8 8 8.009 8.009 0 0 1 -8-8zm108.751-70.81-16.971-50.911 32.607-32.606 50.913 16.971zm-26.124-120.955 28.285 28.284-28.285 28.281-28.284-28.28zm-11.314 67.884-2.827 2.827a12 12 0 0 1 -16.971-16.97l2.827-2.829zm-15.313 243.881a16.019 16.019 0 0 1 16 16h-32a16.019 16.019 0 0 1 16-16zm56 48h-112v-16h112zm-14.584-32a23.633 23.633 0 0 1 1.451-3.377 24.075 24.075 0 0 1 21.133-12.623h32v48h-24v-24a8 8 0 0 0 -8-8zm134.584 28.8a3.2 3.2 0 0 1 -3.2 3.2h-60.8v-48h60.8a3.2 3.2 0 0 1 3.2 3.2zm32 3.2h-11.326l-4.674-4.673v-22.653l16 16zm52.457-168h-24.914l-18.962-48.087c2.6.372 60.512.427 62.777.152zm-6 16-6.457 17.216-6.456-17.216zm26.024-263.5a59.845 59.845 0 0 0 9.088 31.54c-.52-.025-1.043-.04-1.569-.04a32.043 32.043 0 0 0 -29.353 19.272 30.781 30.781 0 0 0 -21.294 0 32.167 32.167 0 0 0 -18.663-17.429 61.209 61.209 0 0 0 20.057-16.343 45.066 45.066 0 0 1 35.365-17zm23.457 62.287c-.006.138-.018.275-.018.413v.08h.043c.011.241.037.477.037.72a16.223 16.223 0 1 1 -.062-1.213zm-111.872-.1a7.92 7.92 0 0 0 .154-1.219 15.9 15.9 0 1 1 -.22 2.532c0-.444.031-.88.066-1.314zm15.934 33.313a32.042 32.042 0 0 0 31.75-28.067 14.653 14.653 0 0 1 16.5 0 32.042 32.042 0 0 0 31.75 28.067q1.62 0 3.2-.16l-.241.64-84.912-.016-.2-.545c.71.048 1.427.081 2.153.081zm136.5-31.5a16.019 16.019 0 0 1 -16 16v-32a16.019 16.019 0 0 1 16 16zm-32.02-56.02v25.82a44.133 44.133 0 0 1 -16-33.823v-7.59c.007-.129.02-.257.02-.387v-6.641a24.041 24.041 0 0 1 15.98 22.621zm-127.98.02a40.045 40.045 0 0 1 40-40h38.111a20.815 20.815 0 0 1 17.869 10.018v5.982h-6.368a60.99 60.99 0 0 0 -47.859 23 45.066 45.066 0 0 1 -35.365 17h-6.388zm-32 56a16.017 16.017 0 0 1 15.98-16v32a16.017 16.017 0 0 1 -15.98-16zm31.98 79.983v-55.983h.02v-2.81q.325.353.662.694l5.931 15.768a15.964 15.964 0 0 0 14.987 10.328h84.88a15.991 15.991 0 0 0 15.014-10.4l6.506-17.4v59.8a39.938 39.938 0 0 1 -40 40h-48a38.758 38.758 0 0 1 -13.669-2.451c-.033-.011-.064-.023-.095-.035a39.931 39.931 0 0 1 -26.236-37.514zm-.48 118.437v-44.6l19.553-7.9 10.861 27.151zm128 0-30.414-25.345 10.861-27.151 19.553 7.896zm-24 121.08v-56h48v56z"/><path d="m296 368h16v16h-16z"/><path d="m296 416h16v16h-16z"/><path d="m364.077 199.655-7.154-14.31a68.145 68.145 0 0 1 -30.312 7.155h-14.111v16h14.111a84.208 84.208 0 0 0 37.466-8.845z"/></g></svg>