<svg height="512" viewBox="0 0 512 512" width="512" xmlns="http://www.w3.org/2000/svg"><g id="Filled_outline" data-name="Filled outline"><path d="m192 136v120a64 64 0 0 1 -64 64h-40a63.927 63.927 0 0 1 -64-64v-120a64 64 0 0 1 64-64h40a63.992 63.992 0 0 1 64 64z" fill="#e0e0de"/><path d="m192 136v120a64 64 0 0 1 -64 64h-40a64.032 64.032 0 0 1 -59.02-39.19c56.46-26.64 120.78-80.43 145.67-188.63a63.769 63.769 0 0 1 17.35 43.82z" fill="#d6d6d4"/><rect fill="#4db7e5" height="104" rx="32" transform="matrix(0 1 -1 0 304 88)" width="184" x="16" y="144"/><path d="m72 256v-120a32.036 32.036 0 0 1 32-32h-16a32.036 32.036 0 0 0 -32 32v120a32.036 32.036 0 0 0 32 32h16a32.036 32.036 0 0 1 -32-32z" fill="#48add9"/><path d="m128 104h-40a32.036 32.036 0 0 0 -32 32h104a32.036 32.036 0 0 0 -32-32z" fill="#c7c7c5"/><path d="m104 104h-16a32.036 32.036 0 0 0 -32 32h16a32.036 32.036 0 0 1 32-32z" fill="#bfbfbd"/><path d="m160 248h-48a16 16 0 0 1 -16-16 16 16 0 0 1 16-16h16a24 24 0 0 1 24-24h8z" fill="#ebebe9"/><path d="m390 280.005h-.182a33.282 33.282 0 0 1 -21.818-31.246v-32.759h-80v32.759a33.282 33.282 0 0 1 -21.818 31.246h-.182l-42 8v207.995h208v-208z" fill="#fec9a3"/><path d="m368 235.873v-19.873h-80v19.873a71.963 71.963 0 0 0 80 0z" fill="#feb784"/><path d="m390 280.005h-.182a33.178 33.178 0 0 1 -17.379-14.818l-44.439 14.813-44.439-14.813a33.178 33.178 0 0 1 -17.379 14.818h-.182l-42 8v207.995h208v-208z" fill="#d6d6d4"/><path d="m285.657 332.933 42.343-52.928-48-16-14 16h.182z" fill="#ebebe9"/><path d="m370.343 332.933-42.343-52.928 48-16 14 16h-.182z" fill="#ebebe9"/><path d="m328 280.005-16 20v104.517l16 43.483 16-43.483v-104.517z" fill="#348fd9"/><path d="m328 280.005-16 20v104.517l16 43.483 16-43.483v-104.517z" fill="#348fd9"/><path d="m408 112h-8v48h8a24 24 0 0 0 24-24 24 24 0 0 0 -24-24z" fill="#feb784"/><path d="m248.4 112h-.4a24.071 24.071 0 0 0 -24 24 24.071 24.071 0 0 0 24 24h8v-48z" fill="#feb784"/><path d="m400 104.01v55.99a72 72 0 1 1 -144 0v-55.99a72 72 0 0 1 72-72c.54 0 1.09.01 1.63.02a72 72 0 0 1 70.37 71.98z" fill="#fec9a3"/><path d="m400 104.01v55.99a72 72 0 0 1 -82.64 71.21 87.977 87.977 0 0 0 49.64-79.21v-48a88.042 88.042 0 0 0 -37.37-71.97 72 72 0 0 1 70.37 71.98z" fill="#fec093"/><path d="m376 48h-67.186c-6.3 8.747-14.8 20.157-24.392 32h91.578z" fill="#fec093"/><path d="m256 112v-48c0-26.514 17.909-32 40-32h24s-32 48-64 80z" fill="#f27900"/><path d="m259.071 48c-1.971 4.213-3.071 9.462-3.071 16v16h28.422c9.6-11.843 18.1-23.253 24.392-32z" fill="#e67007"/><path d="m400 112v-48c0-26.514-17.909-32-40-32h-24s32 48 64 80z" fill="#f27900"/><path d="m320.934 164.562h-16.934v16h16.934a114.927 114.927 0 0 0 33.386-4.9l-4.64-15.312a98.963 98.963 0 0 1 -28.746 4.212z" fill="#f7a468"/><circle cx="292" cy="124.004" fill="#7a432a" r="12"/><circle cx="364" cy="124.004" fill="#7a432a" r="12"/><path d="m400 64h-128a20 20 0 0 1 -20-20 20 20 0 0 1 20-20h88a40 40 0 0 1 40 40z" fill="#f98500"/><g fill="#f27900"><path d="m361.627 24.164c-.552-.022-1.07-.164-1.627-.164h-17.325l24.925 40h18.85z"/><path d="m272 24a19.859 19.859 0 0 0 -8.2 1.8l23.8 38.2h18.85l-24.925-40z"/><path d="m302.675 24 24.923 40h18.85l-24.923-40z"/></g><path d="m168 337.63v158.37h56v-208l-14.788 2.112a48 48 0 0 0 -41.212 47.518z" fill="#e0e0de"/><path d="m488 337.63v158.37h-56v-208l14.79 2.11a47.988 47.988 0 0 1 41.21 47.52z" fill="#e0e0de"/><path d="m488 337.63v158.37h-56v-142.81a255.862 255.862 0 0 0 35.64-54.81 47.961 47.961 0 0 1 20.36 39.25z" fill="#d6d6d4"/><path d="m432 288v208h-208v-208l42-8h.18l56.05 152.33 5.77 15.67 9.17-24.93 52.65-143.07h.18z" fill="#49648e"/><path d="m432 323.13v172.87h-208v-21.56c32.21-9.76 66.23-23.32 98.23-42.11l5.77 15.67 9.17-24.93c37.59-24.59 71.41-57.07 94.83-99.94z" fill="#425b82"/><path d="m320 440.004h16v55.996h-16z" fill="#3c5174"/><path d="m368 416h64v32h-64z" fill="#ffb531"/><path d="m368 432h64v16h-64z" fill="#ffa912"/><path d="m328 280.005-16 20v19.995l16-24 16 24v-19.995z" fill="#3086cd"/><path d="m108.364 448-4.364 48h64v-48z" fill="#ebebe9"/><path d="m168 408h-56l-3.636 40h59.636z" fill="#ebebe9"/><path d="m168 349.17v58.83h-68.67a47.168 47.168 0 0 1 -5.32-.3 47.717 47.717 0 0 1 -16.14-4.77l-13.03-6.51a16 16 0 0 1 -8.84-14.31v-33.4a9.6 9.6 0 0 1 13.89-8.59l7.98 3.98a47.867 47.867 0 0 0 21.46 5.07h36.67l-7.32-14.65a15.561 15.561 0 1 1 28.37-12.73l5.44 13.59z" fill="#fec9a3"/><path d="m168 349.17v58.83h-68.67a47.168 47.168 0 0 1 -5.32-.3c27.39-17.37 52.06-40.79 68.48-72.32z" fill="#fec093"/><path d="m128 296a40.045 40.045 0 0 0 40-40v-120a40.045 40.045 0 0 0 -40-40h-40a40.045 40.045 0 0 0 -40 40v120a40.045 40.045 0 0 0 40 40zm24-56h-40a8 8 0 0 1 0-16h16a8 8 0 0 0 8-8 16.019 16.019 0 0 1 16-16zm-64-128h40a24.039 24.039 0 0 1 22.624 16h-85.248a24.039 24.039 0 0 1 22.624-16zm-24 144v-112h88v40a32.058 32.058 0 0 0 -30.988 24h-9.012a24 24 0 0 0 0 48h40a24.028 24.028 0 0 1 -24 24h-40a24.028 24.028 0 0 1 -24-24z"/><path d="m304 180.564h16.934a115.037 115.037 0 0 0 33.385-4.9l-4.638-15.312a99.1 99.1 0 0 1 -28.747 4.215h-16.934z"/><path d="m292 136.005a12 12 0 1 0 -12-12 12.013 12.013 0 0 0 12 12z"/><path d="m364 136.005a12 12 0 1 0 -12-12 12.013 12.013 0 0 0 12 12z"/><path d="m447.919 282.193-53.719-9.537-12.179-13.919a7.989 7.989 0 0 0 -4.927-2.649 25.262 25.262 0 0 1 -1.094-7.368v-24.754a79.772 79.772 0 0 0 31.6-55.966h.4a32 32 0 0 0 0-64v-40a48.336 48.336 0 0 0 -.368-5.842 36.717 36.717 0 0 0 -5.464-17.122c-.212-.382-.4-.671-.554-.911a48.019 48.019 0 0 0 -41.614-24.125h-88a27.981 27.981 0 0 0 -23.767 42.779c-.15 1.621-.233 3.347-.233 5.221v40a32 32 0 1 0 0 64h.405a79.76 79.76 0 0 0 31.595 55.967v24.753a25.274 25.274 0 0 1 -1.094 7.369 7.985 7.985 0 0 0 -4.927 2.648l-12.179 13.919-53.719 9.537a55.325 55.325 0 0 0 -14.775 4.272 72.235 72.235 0 0 0 6.694-30.465v-120a72.081 72.081 0 0 0 -72-72h-40a72.081 72.081 0 0 0 -72 72v120a72.081 72.081 0 0 0 72 72h31.026a23.529 23.529 0 0 0 2.5 10.1l1.535 3.07h-23.73a40.21 40.21 0 0 1 -17.888-4.222l-7.972-3.987a17.6 17.6 0 0 0 -25.471 15.745v33.4a23.869 23.869 0 0 0 13.267 21.467l13.021 6.51a56.277 56.277 0 0 0 25.043 5.917h3.909l-7.207 79.276 15.934 1.448 3.7-40.724h44.333v40h16v-158.37a40.2 40.2 0 0 1 34.343-39.6l5.657-.808v198.778h16v-201.38l29-5.524 2.105 5.721 56.895 154.613v46.57h16v-46.57l41.851-113.73 15.042-40.879 2.107-5.721 29 5.524v113.376h-56a8 8 0 0 0 -8 8v32a8 8 0 0 0 8 8h56v40h16v-198.776l5.657.808a40.2 40.2 0 0 1 34.343 39.598v158.37h16v-158.37a56.274 56.274 0 0 0 -48.081-55.437zm-415.919-26.193v-120a56.064 56.064 0 0 1 56-56h40a56.064 56.064 0 0 1 56 56v120a55.6 55.6 0 0 1 -31.387 50.293 23.478 23.478 0 0 0 -15.732-1.587 23.459 23.459 0 0 0 -11.981 7.294h-36.9a56.064 56.064 0 0 1 -56-56zm49.443 139.777-13.021-6.51a7.956 7.956 0 0 1 -4.422-7.156v-33.4a1.534 1.534 0 0 1 .759-1.362 1.532 1.532 0 0 1 1.556-.07l7.973 3.986a56.277 56.277 0 0 0 25.043 5.912h36.669a8 8 0 0 0 7.155-11.577l-7.323-14.648a7.562 7.562 0 1 1 13.785-6.191l10.383 25.952v49.287h-60.669a40.2 40.2 0 0 1 -17.888-4.223zm35.681 44.223 2.182-24h40.694v24zm258.876 0v-16h48v16zm-80-206.683a79.959 79.959 0 0 0 64 0v15.4a41.287 41.287 0 0 0 1.676 11.627l-33.676 11.228-33.676-11.225a41.287 41.287 0 0 0 1.676-11.627zm32 59.494 8 10v100.289l-8 21.741-8-21.741v-100.289zm-24 66.8-9.276-25.209 9.276-11.6zm48-36.8 9.276 11.6-9.276 25.204zm15.731-5.948-17.483-21.854-8.833-11.041 32.069-10.689 7.241 8.276zm-103.731-246.034a27.889 27.889 0 0 0 8 1.171h8.615q-8.555 10.721-16.615 19.782zm36.53-14.829-14.4-24h21.34l14.4 24zm40 0-14.4-24h21.34l14.4 24zm51.47 16v19.791q-8.019-9.033-16.623-19.791zm32 64a16.018 16.018 0 0 1 -16 16v-32a16.019 16.019 0 0 1 16 16zm-33.012-80h-10.458l-13.995-23.325a32.107 32.107 0 0 1 24.453 23.325zm-123.078-23.267 13.96 23.267h-9.87a11.991 11.991 0 0 1 -4.09-23.267zm-35.91 103.267a16.019 16.019 0 0 1 16-16v32a16.018 16.018 0 0 1 -16-16zm32 24v-44.716c3.027-3.089 5.9-6.146 8.545-9.087 8.956-9.8 18.491-21.3 28.369-34.2h54.186c.977 1.267 1.967 2.551 2.958 3.887.039.053.079.106.12.157a473.941 473.941 0 0 0 33.822 39.243v44.716a64 64 0 0 1 -128 0zm18.517 113.277 32.069 10.689-8.833 11.041-17.483 21.854-12.993-35.31z"/></g></svg>