<svg height="512" viewBox="0 0 512 512" width="512" xmlns="http://www.w3.org/2000/svg"><g id="Filled_outline" data-name="Filled outline"><path d="m408 160h16v16h-16z" fill="#feb784"/><path d="m264 160h16v16h-16z" fill="#feb784"/><rect fill="#348fd9" height="320" rx="24" width="240" x="24" y="168"/><path d="m264 200v264a24.006 24.006 0 0 1 -24 24h-192a24.006 24.006 0 0 1 -24-24v-24z" fill="#3086cd"/><path d="m56 200h176v256h-176z" fill="#60d1e0"/><path d="m232 250v206h-176v-30z" fill="#5ac6d4"/><path d="m168 168v-8a24 24 0 0 0 -24-24 24 24 0 0 0 -24 24v8h-24l-8 48h112l-8-48z" fill="#ffb531"/><path d="m92 192-4 24h112l-4-24z" fill="#ffa912"/><path d="m256 120h24v24h-24z" fill="#95573a"/><circle cx="424" cy="64" fill="#82462a" r="40"/><path d="m264 128h8a0 0 0 0 1 0 0v48a0 0 0 0 1 0 0h-8a24 24 0 0 1 -24-24 24 24 0 0 1 24-24z" fill="#feb784"/><path d="m472 496v-176a40 40 0 0 0 -40-40h-48a8 8 0 0 1 -8-8v-56h-64v56a8 8 0 0 1 -8 8h-48a40 40 0 0 0 -40 40v176" fill="#fec9a3"/><path d="m376 248.427v-32.427h-64v32.427a71.4 71.4 0 0 0 64 0z" fill="#feb784"/><path d="m434.94 384c8.34 20.78 4.6 45.51-10.94 64v48h-160v-48c-15.54-18.49-19.97-43.22-11.63-64h-52.37l10.78-70.08a39.994 39.994 0 0 1 39.54-33.92h45.68l48 80 48-80h46.11a40.01 40.01 0 0 1 38.77 30.14c.27 1.07.5 2.17.69 3.28l10.43 70.58z" fill="#4db7e5"/><path d="m434.94 384c8.34 20.78 4.6 45.51-10.94 64v48h-160v-18.9c83.11-35.45 153.52-77.91 212.88-166.96.27 1.07.5 2.17.69 3.28l10.43 70.58z" fill="#48add9"/><path d="m416 112v56a72.006 72.006 0 0 1 -72 72 71.157 71.157 0 0 1 -9.85-.68h-.01a72.006 72.006 0 0 1 -62.14-71.32v-56a64 64 0 0 1 64-64h16a63.96 63.96 0 0 1 64 64z" fill="#fec9a3"/><path d="m416 112v56a72.006 72.006 0 0 1 -72 72 71.157 71.157 0 0 1 -9.85-.68 88 88 0 0 0 49.85-79.32v-64a87.447 87.447 0 0 0 -12.32-44.91 64 64 0 0 1 44.32 60.91z" fill="#fec093"/><path d="m432 104v32l-16-8-32-64s-1.69 1.35-4.67 3.65c-17.55 13.58-79.98 60.35-107.33 60.35h-16v-24a80 80 0 0 1 80-80h16a80 80 0 0 1 80 80z" fill="#95573a"/><path d="m432 104v32l-16-8-32-64s-1.69 1.35-4.67 3.65a88.264 88.264 0 0 0 -32.74-43.65h5.41a80 80 0 0 1 80 80z" fill="#8f4d2e"/><path d="m416 128h8a24 24 0 0 1 24 24 24 24 0 0 1 -24 24h-8a0 0 0 0 1 0 0v-48a0 0 0 0 1 0 0z" fill="#feb784"/><path d="m48 496h176v-104h17.517a71.617 71.617 0 0 0 13.836 58.875l.647 45.242 16-.232v-.106l-.686-47.892a8.005 8.005 0 0 0 -1.874-5.031 56.448 56.448 0 0 1 -13.44-37.72 31.991 31.991 0 1 0 32-52.123v-65.013h3.471l45.669 76.116a8 8 0 0 0 13.72 0l45.669-76.116h3.471v48.805a40.068 40.068 0 0 0 -32 39.195v40a8 8 0 0 0 8 8h16v-16h-8v-32a24 24 0 0 1 48 0v32h-8v16h4.455a57.629 57.629 0 0 1 -10.58 18.854 8 8 0 0 0 -1.875 5.146v48h16v-45.178a73.116 73.116 0 0 0 13.675-29.186 7.974 7.974 0 0 0 2.325-5.636v-24h16v104h16v-104h8a8 8 0 0 0 7.914-9.167l-10.4-70.56c-.008-.058-.018-.116-.028-.174a48 48 0 0 0 -47.406-40.099h-22.08a32.036 32.036 0 0 0 -32-32v-2.743a79.384 79.384 0 0 0 38.4-53.257h1.6a31.989 31.989 0 0 0 16-59.695v-15.04a48 48 0 1 0 -46.145-82.619 87.01 87.01 0 0 0 -41.855-10.646h-16a88.1 88.1 0 0 0 -88 88v20.305a31.992 31.992 0 0 0 -14.987 35.695h-57.013a32 32 0 0 0 -64 0h-64a32.036 32.036 0 0 0 -32 32v272a32.036 32.036 0 0 0 32 32zm160-48h-144v-240h17.222l-1.114 6.685a8 8 0 0 0 7.892 9.315h112a8 8 0 0 0 7.892-9.315l-1.114-6.685h17.222v71.916a48.057 48.057 0 0 0 -21.107 32.791c-.008.052-.016.1-.023.155l-.149 1.117-10.627 68.8a8 8 0 0 0 7.906 9.221h8zm44.293-266.227a16 16 0 0 1 3.707 10.227v80s-12.62.4-16 1.152v-73.152a8 8 0 0 0 -8-8h-27.889l-2.667-16h38.556a14.748 14.748 0 0 1 3.291.366 32.011 32.011 0 0 0 9.002 5.407zm51.707 58.227a32.036 32.036 0 0 0 -32 32v-68.968a79.546 79.546 0 0 0 32 34.226zm-8 144a16 16 0 1 1 -16-16 16.019 16.019 0 0 1 16 16zm-24-30.987a32.041 32.041 0 0 0 -16.075 9.941l-.129-.108a66.811 66.811 0 0 0 -8.651 13.154h-37.814l9.215-59.659c.009-.054.016-.108.023-.163l.15-1.117a32.026 32.026 0 0 1 16.981-23.488 31.293 31.293 0 0 1 14.62-3.573h21.68zm16-81.013a16.019 16.019 0 0 1 16-16v16zm56 72.451-34.473-57.451a16.011 16.011 0 0 0 10.473-15v-27.7a79.7 79.7 0 0 0 48 0v27.7a16.011 16.011 0 0 0 10.473 15zm94.08-56.451a32.041 32.041 0 0 1 31.62 26.7l9.036 61.3h-30.736a40.068 40.068 0 0 0 -32-39.195v-48.805zm-38.08-16h-16v-16a16.019 16.019 0 0 1 16 16zm-27.578-46.675a64 64 0 0 1 -92.422-57.325v-35.795c38.369-10.825 83.318-42.551 101.185-55.948l26.815 53.631v38.112a63.645 63.645 0 0 1 -35.578 57.325zm51.578-57.325v-32a16 16 0 0 1 0 32zm32-104a32.113 32.113 0 0 1 -16.8 28.172 87.52 87.52 0 0 0 -31.135-55.925 32 32 0 0 1 47.935 27.753zm-192 40a72.081 72.081 0 0 1 72-72h16a70.966 70.966 0 0 1 38.6 11.316 71.687 71.687 0 0 1 33.4 59.884v16.8h-3.056l-29.789-59.578a8 8 0 0 0 -12.15-2.671c-.627.5-63.243 50.244-108.787 60.45q-3.227.737-6.218 1.174zm0 32v32a16 16 0 0 1 0-32zm-144 40a8 8 0 0 0 8-8v-8a16 16 0 0 1 32 0v8a8 8 0 0 0 8 8h17.223l5.334 32h-93.114l5.334-32zm-88 16a16.019 16.019 0 0 1 16-16h38.556l-2.667 16h-27.889a8 8 0 0 0 -8 8v256a8 8 0 0 0 8 8h152v16h-160a16.019 16.019 0 0 1 -16-16z"/><path d="m80 304h16v16h-16z"/><path d="m112 304h72v16h-72z"/><path d="m80 336h16v16h-16z"/><path d="m112 336h72v16h-72z"/><path d="m80 368h16v16h-16z"/><path d="m112 368h64v16h-64z"/><path d="m80 400h16v16h-16z"/><path d="m112 400h72v16h-72z"/><path d="m136 288h16v-16h16v-16h-16v-16h-16v16h-16v16h16z"/><path d="m308 128a12 12 0 1 0 12 12 12.013 12.013 0 0 0 -12-12z"/><path d="m380 128a12 12 0 1 0 12 12 12.013 12.013 0 0 0 -12-12z"/><path d="m344 184a8.009 8.009 0 0 1 -8-8h-16a24 24 0 0 0 48 0h-16a8.009 8.009 0 0 1 -8 8z"/></g></svg>