<svg height="512" viewBox="0 0 512 512" width="512" xmlns="http://www.w3.org/2000/svg"><g id="Filled_outline" data-name="Filled outline"><path d="m392 137.52v-17.52h-56v176h56l8.243-19.234a69.161 69.161 0 0 0 3.906-42.446c-7.165-31.851-12.149-64.153-12.149-96.8z" fill="#61311b"/><path d="m216 208a69.184 69.184 0 0 0 -8.243 68.766l8.243 19.234h56v-104l-16-32z" fill="#61311b"/><path d="m336 280v-64h-64v64h-16v88h96v-88z" fill="#fec9a3"/><path d="m308.824 256a43.894 43.894 0 0 0 27.176-9.81v-30.19h-64v30.19a43.894 43.894 0 0 0 27.176 9.81z" fill="#feb784"/><path d="m264 352h80v80h-80z" fill="#db6ea2"/><path d="m424 320v176h-192v-48c-24-24-20.04-50.81-8-71.58h.03l-.03-.42-78.79 100.01a32.16 32.16 0 0 1 -51.74-38.11l92.27-136.75a48 48 0 0 1 39.79-21.15h30.47l48 136 48-136h32a40 40 0 0 1 40 40z" fill="#3d4d63"/><path d="m424 348v148h-175.11c71.54-33.82 120.56-66.02 175.11-148z" fill="#374559"/><g fill="#4c5d72"><path d="m256 280-40 32 32 24-8 24 64 56z"/><path d="m352 280 40 32-32 24 8 24-64 56z"/><path d="m88 457.772v-41.772h56l4.27 38.434a30.227 30.227 0 0 1 -30.042 33.566 30.227 30.227 0 0 1 -30.228-30.228z"/></g><path d="m88 384h56v32h-56z" fill="#db6ea2"/><path d="m160 416h-32l-8-128h48z" fill="#4c5d72"/><path d="m167 304 1-16h-48l1 16z" fill="#374559"/><path d="m96 240h48v48h-48z" fill="#e0e0de"/><path d="m144 240h48v48h-48z" fill="#c7c7c5"/><path d="m176 200v40h-64v-40a24.006 24.006 0 0 1 24-24h16a23.941 23.941 0 0 1 20.92 12.27 23.668 23.668 0 0 1 3.08 11.73z" fill="#3d4d63"/><path d="m88 320h64.591a15.409 15.409 0 0 1 15.409 15.409v33.182a15.409 15.409 0 0 1 -15.409 15.409h-64.591a0 0 0 0 1 0 0v-64a0 0 0 0 1 0 0z" fill="#fec9a3"/><path d="m152.591 320h-32a15.409 15.409 0 0 1 15.409 15.409v33.182a15.409 15.409 0 0 1 -15.409 15.409h32a15.409 15.409 0 0 0 15.409-15.409v-33.182a15.409 15.409 0 0 0 -15.409-15.409z" fill="#fec093"/><path d="m376 112v56a72.006 72.006 0 0 1 -72 72 71.157 71.157 0 0 1 -9.85-.68h-.01a72.006 72.006 0 0 1 -62.14-71.32v-56a64 64 0 0 1 64-64h16c1.53 0 3.05.05 4.56.17a63.983 63.983 0 0 1 59.44 63.83z" fill="#fec9a3"/><path d="m376 112v56a72.006 72.006 0 0 1 -72 72 71.157 71.157 0 0 1 -9.85-.68 88 88 0 0 0 49.85-79.32v-48a87.688 87.688 0 0 0 -25.78-62.22c-.55-.55-1.1-1.08-1.66-1.61a63.983 63.983 0 0 1 59.44 63.83z" fill="#fec093"/><path d="m392 104v16h-16v-8c-16.93-8.47-30.83-16.4-40-30.83a62.766 62.766 0 0 1 -5.29-10.39l-2.71-6.78-8 3.56-26.44 11.75a63.264 63.264 0 0 0 -37.56 57.79 63.258 63.258 0 0 1 -14.66 40.49l-25.34 30.41v-104a80 80 0 0 1 80-80h16q4.05 0 8 .39a79.139 79.139 0 0 1 16 3.28 80.019 80.019 0 0 1 56 76.33z" fill="#7a432a"/><path d="m376 112h8a24 24 0 0 1 24 24 24 24 0 0 1 -24 24h-8a0 0 0 0 1 0 0v-48a0 0 0 0 1 0 0z" fill="#feb784"/><path d="m336 27.67v53.5a62.766 62.766 0 0 1 -5.29-10.39l-2.71-6.78-8 3.56v-43.17a79.139 79.139 0 0 1 16 3.28z" fill="#61311b"/><path d="m176 200v40h-63.13c22.95-11.24 42.85-25.77 60.05-51.73a23.668 23.668 0 0 1 3.08 11.73z" fill="#374559"/><path d="m408.165 278.537a77.17 77.17 0 0 0 3.795-45.993 490.511 490.511 0 0 1 -10.3-61.874 31.968 31.968 0 0 0 -1.66-54.365s-.138-17.779-.44-21.105a88.169 88.169 0 0 0 -69.968-77.44 88.533 88.533 0 0 0 -17.592-1.76h-16a88.1 88.1 0 0 0 -88 88v101.411a76.727 76.727 0 0 0 -12.049 27.638 7.959 7.959 0 0 0 -3.951-1.049h-8v-32a32.036 32.036 0 0 0 -32-32h-16a32.036 32.036 0 0 0 -32 32v32h-8a8 8 0 0 0 -8 8v48a8 8 0 0 0 8 8h16.484l1 16h-25.484a8 8 0 0 0 -8 8v137.772a38.271 38.271 0 0 0 38.228 38.228c.324 0 .645-.018.968-.026.156.008.811.026.964.026a40.04 40.04 0 0 0 31.324-15.049l56.869-72.169a74.129 74.129 0 0 0 15.647 42.043v45.175h16v-48a8 8 0 0 0 -1.875-5.146c-15.354-18.274-18.25-43.361-7.206-62.427l-4.911-2.845-8.292-6.533-61.929 78.591-2.849-25.64h7.062a8 8 0 0 0 7.983-7.485l2.09-32.378a23.314 23.314 0 0 0 5.927-15.546v-33.182a23.421 23.421 0 0 0 -.5-4.827l16.9-25a39.9 39.9 0 0 1 20.455-15.465c3.74-1.291 11.94-2.073 12.265-2.119h8.077l-22.197 17.755a8 8 0 0 0 .2 12.647l27.387 20.54-6.176 18.53a8 8 0 0 0 2.321 8.551l61.268 53.609v76.37h16v-76.37l61.268-53.609a8 8 0 0 0 2.321-8.551l-6.176-18.53 27.387-20.54a8 8 0 0 0 .2-12.647l-22.194-17.753h9.194a32.033 32.033 0 0 1 32 32v176h16v-176a48.158 48.158 0 0 0 -23.835-41.463zm-72.165 9.463h4.693l-22.588 64h-28.205l-22.588-64h4.688a8 8 0 0 0 8-8v-35.7a79.7 79.7 0 0 0 48 0v35.7a8 8 0 0 0 8 8zm-32 103.963-8.458-23.963h16.916zm28.422-166.638a64.128 64.128 0 0 1 -89.311-37.361l4.38-5.226.079-.095c.083-.094.173-.2.268-.318.032-.039.066-.085.1-.128.053-.069.106-.134.161-.21a71.8 71.8 0 0 0 14.56-31.257 12 12 0 1 0 2.021-22.252 55.55 55.55 0 0 1 32.081-41.878l26.9-11.921a102.054 102.054 0 0 0 44.339 50.121v43.2a63.645 63.645 0 0 1 -35.578 57.325zm51.578-97.325a16 16 0 0 1 0 32zm-18.694-72.354a71.394 71.394 0 0 1 18.327 41.078c.25 2.757.367 15.276.367 15.276h-6.067a86.064 86.064 0 0 1 -39.785-44.172l-2.148-5.369v-26.344a71.7 71.7 0 0 1 29.306 19.531zm-69.306-23.646h16a73.028 73.028 0 0 1 8 .454v26.346l-29.706 13.159a71.489 71.489 0 0 0 -42.294 65.161 55.591 55.591 0 0 1 -12.52 35.024l-.017.021-.028.035c-.132.149-.275.321-.431.529l-11 13.212v-81.941a72.081 72.081 0 0 1 71.996-72zm-144 248v-32h32v32zm-32-80a16.019 16.019 0 0 1 16-16h16a16.019 16.019 0 0 1 16 16v32h-48zm-16 48h32v32h-32zm24.516 48h30.96l-1.063 16.733a23.389 23.389 0 0 0 -5.822-.733h-23.075zm-32.516 32h56.591a7.418 7.418 0 0 1 7.409 7.409v33.182a7.418 7.418 0 0 1 -7.409 7.409h-56.591zm39.514 80-1-16h18.076c.311 0 .62-.011.928-.023l-1.018 16.023zm-39.514-16h22.484l1 16h-23.484zm0 65.772v-33.772h40.84l3.479 31.318a22.219 22.219 0 0 1 -20.439 24.616c-.065 0-.13-.013-.194-.013a.591.591 0 0 1 -.164 0 8.2 8.2 0 0 0 -1 .07c-.1 0-.195.008-.292.008a22.253 22.253 0 0 1 -22.23-22.227zm79.087-155.149.421-6.623h4.075c-.149.214-.305.423-.451.64zm47.56-30.5a51.492 51.492 0 0 0 -7.779.923 61.272 61.272 0 0 1 7.405-60.079l9.211-11.029a79.672 79.672 0 0 0 32.516 35.323v34.739s-40.912.049-41.353.125zm26.625 85.357 6.317-18.952a8 8 0 0 0 -2.789-8.93l-23.738-17.8 23.138-18.516 34.094 96.6zm105.928-27.88a8 8 0 0 0 -2.789 8.93l6.317 18.952-37.028 32.398 34.094-96.6 23.144 18.52zm-11.2-57.6v-34.743a79.4 79.4 0 0 0 39.6-61.257h.4c.706 0 1.4-.031 2.1-.076a512.931 512.931 0 0 0 10.254 60.137 61.267 61.267 0 0 1 -3.163 36.838 47.751 47.751 0 0 0 -9.191-.899z"/><path d="m376.182 380.066c11.465 19.42 8.931 44.653-6.307 62.788a8 8 0 0 0 -1.875 5.146v48h16v-45.178c17.91-23.131 20.381-54.463 5.96-78.89z"/><path d="m264 432h16v16h-16z"/><path d="m340 128a12 12 0 1 0 12 12 12.013 12.013 0 0 0 -12-12z"/><path d="m304 184a8.009 8.009 0 0 1 -8-8h-16a24 24 0 0 0 48 0h-16a8.009 8.009 0 0 1 -8 8z"/></g></svg>