<svg height="512" viewBox="0 0 512 512" width="512" xmlns="http://www.w3.org/2000/svg"><g id="Filled_outline" data-name="Filled outline"><path d="m16 240h480v256h-480z" fill="#4db7e5"/><path d="m200 392h16v104h-16z" fill="#b0b0ae"/><path d="m144 352h32v32h-32z" fill="#3d4d63"/><path d="m136 496v-146.885a64 64 0 0 1 52.205-62.9l75.795-14.215v-72h48 48v72l75.8 14.212a64 64 0 0 1 52.2 62.9v146.888" fill="#fec9a3"/><path d="m360 266.168v-66.168h-96v66.168a90.2 90.2 0 0 0 96 0z" fill="#feb784"/><path d="m488 496v-146.888a64 64 0 0 0 -52.206-62.9l-75.794-14.212v8a48 48 0 0 1 -48 48 48 48 0 0 1 -48-48v-8l-75.794 14.211a64 64 0 0 0 -52.206 62.904v146.885" fill="#c7c7c5"/><path d="m488 349.11v146.89h-352v-146.88a64.012 64.012 0 0 1 52.21-62.91l75.79-14.21 48 96 48-96 75.79 14.21a63.981 63.981 0 0 1 52.21 62.9z" fill="#c7c7c5"/><path d="m488 349.11v146.89h-301.4c113.13-37.86 204.76-79.99 278.37-196.06a63.972 63.972 0 0 1 23.03 49.17z" fill="#bfbfbd"/><path d="m328 392h-32l-72-104h32z" fill="#2e3e51"/><path d="m296 392h32l72-104h-32z" fill="#3d4d63"/><path d="m296 392h32v32h-32z" fill="#4c5d72"/><path d="m264 272-74.927 14.049 122.927 81.951z" fill="#e0e0de"/><path d="m360 272 74.927 14.049-122.927 81.951z" fill="#e0e0de"/><path d="m264 488a57.889 57.889 0 0 0 32-51.777v-44.223a57.889 57.889 0 0 0 -32 51.777z" fill="#3d4d63"/><path d="m360 488a57.889 57.889 0 0 1 -32-51.777v-44.223a57.889 57.889 0 0 1 32 51.777z" fill="#3d4d63"/><path d="m360 392h56v32h-56z" fill="#e0e0de"/><path d="m456 352h32v32h-32z" fill="#3d4d63"/><path d="m392 128h-8v48h8a24 24 0 1 0 0-48z" fill="#feb784"/><path d="m232.4 128h-.4a24 24 0 0 0 0 48h8v-48z" fill="#feb784"/><path d="m384 120v56a129.8 129.8 0 0 1 -3.88 31.52 64.008 64.008 0 0 1 -62.09 48.48h-12.06a63.993 63.993 0 0 1 -62.09-48.48 129.475 129.475 0 0 1 -3.88-31.52v-56a72.012 72.012 0 0 1 69.87-71.97q1.065-.03 2.13-.03a72.006 72.006 0 0 1 72 72z" fill="#fec9a3"/><path d="m384 120v56a129.8 129.8 0 0 1 -3.88 31.52 64.008 64.008 0 0 1 -62.09 48.48h-12.06a63.864 63.864 0 0 1 -21.45-3.7 88.026 88.026 0 0 0 62.71-84.3v-48a88.014 88.014 0 0 0 -37.36-71.97q1.065-.03 2.13-.03a72.006 72.006 0 0 1 72 72z" fill="#fec093"/><path d="m277.8 89.157a174.36 174.36 0 0 0 68.4 0l5.8-1.157 32 37.333v-5.333a72 72 0 0 0 -144 0v5.331l32-37.331z" fill="#7a432a"/><path d="m384 104h-144l-16-48h176z" fill="#e0e0de"/><path d="m376 56h-128a57.889 57.889 0 0 1 51.777-32h24.446a57.889 57.889 0 0 1 51.777 32z" fill="#d6d6d4"/><path d="m400 56h-33.68c-14.817 21.341-35.681 36.922-55.815 48h73.495z" fill="#d6d6d4"/><path d="m208 240h-136l-48-56h64l24 24h96z" fill="#e0e0de"/><path d="m112 176h80v32h-80z" fill="#d6d6d4"/><path d="m160 136h-16l-8 40h32z" fill="#c7c7c5"/><path d="m164.8 160-4.8-24h-16l-4.8 24z" fill="#bfbfbd"/><path d="m144 112h16v24h-16z" fill="#c7c7c5"/><path d="m128 128h48v16h-48z" fill="#e0e0de"/><path d="m288 200.167h14.891c13.746 0 26.8-2.8 36.746-7.874l-7.274-14.252c-7.628 3.894-18.37 6.126-29.472 6.126h-14.891z"/><path d="m276 160a12 12 0 1 0 -12-12 12.013 12.013 0 0 0 12 12z"/><path d="m348 160a12 12 0 1 0 -12-12 12.013 12.013 0 0 0 12 12z"/><path d="m192 392h16v104h-16z"/><path d="m377.837 232a72.189 72.189 0 0 0 9.993-22.5 134.186 134.186 0 0 0 3.932-25.5h.238a32 32 0 0 0 0-64 81.854 81.854 0 0 0 -.941-12.241 7.987 7.987 0 0 0 .531-1.226l16-48a8 8 0 0 0 -7.59-10.533h-19.272a65.486 65.486 0 0 0 -56.5-32h-24.451a65.486 65.486 0 0 0 -56.5 32h-19.277a8 8 0 0 0 -7.59 10.53l16 48a7.987 7.987 0 0 0 .531 1.226 81.854 81.854 0 0 0 -.941 12.244 32 32 0 1 0 0 64h.238a134.106 134.106 0 0 0 3.926 25.485 72.266 72.266 0 0 0 10 22.518h-30.164v-24.003a8 8 0 0 0 -8-8h-8v-24a8 8 0 0 0 -8-8h-17.441l-4.8-24h6.241v-16h-16v-16h-16v16h-16v16h6.241l-4.8 24h-17.441a8 8 0 0 0 -8 8v12.686l-10.343-10.343a8 8 0 0 0 -5.657-2.343h-64a8 8 0 0 0 -6.074 13.206l36.68 42.794h-38.606v16h240v17.348l-68.4 12.838-.865.162a72.035 72.035 0 0 0 -58.735 70.767v146.885h16v-104h24a8 8 0 0 0 8-8v-32a8 8 0 0 0 -8-8h-23.764a56.063 56.063 0 0 1 43.214-49.418l58.215 38.809 38.864 56.1a65.472 65.472 0 0 0 -28.529 54.286v44.223a7.721 7.721 0 0 0 3.794 6.806c2.456 1.361 6.654.914 7.784.349a65.527 65.527 0 0 0 36.422-58.932v-4.223h16v4.223a65.527 65.527 0 0 0 36.422 58.932 10.541 10.541 0 0 0 7.784-.349 7.45 7.45 0 0 0 3.794-6.806v-44.223a66.9 66.9 0 0 0 -1.044-11.777h49.044v64h16v-104a8 8 0 0 0 -8-8h-64a8 8 0 0 0 -8 8v8.667a65.753 65.753 0 0 0 -12.529-11.177l38.864-56.1 58.217-38.811a56.036 56.036 0 0 1 43.212 49.421h-23.764a8 8 0 0 0 -8 8v32a8 8 0 0 0 8 8h24v104h16v-146.888a72.035 72.035 0 0 0 -58.73-70.766l-69.27-12.992v-17.354h128v-16zm-9.837 168h48v16h-48zm-158.112-109.689 49.656-9.334 31.828 63.657zm38.112-161.99 14-16.321h100l14 16.321v47.679a119.288 119.288 0 0 1 -3.676 29.557 55.68 55.68 0 0 1 -17 28.111 8 8 0 0 0 -.707.572c-.7.637-1.448 1.25-2.268 1.922a55.789 55.789 0 0 1 -34.349 11.838h-12a55.218 55.218 0 0 1 -36.693-13.826 7.836 7.836 0 0 0 -.633-.506 55.7 55.7 0 0 1 -17-28.131 119.29 119.29 0 0 1 -3.674-29.537zm56.711 207.212a57.117 57.117 0 0 0 14.578 0l-7.289 14.578zm1.289-71.533h12a72.026 72.026 0 0 0 34-8.571v14.679l-23.09 46.182a40.395 40.395 0 0 1 -33.821 0l-23.089-46.179v-14.672a71.529 71.529 0 0 0 34 8.561zm58.456 16.977 49.664 9.328-81.492 54.329zm43.544-128.977a16.019 16.019 0 0 1 -16 16v-32a16.019 16.019 0 0 1 16 16zm-108.223-120h24.446a49.594 49.594 0 0 1 36.651 16h-97.748a49.594 49.594 0 0 1 36.651-16zm89.123 32-10.666 32h-132.468l-10.666-32zm-172.9 88a16.019 16.019 0 0 1 16-16v32a16.019 16.019 0 0 1 -16-16zm-65.441-8h2.882l4.8 24h-12.482zm33.441 40v16h-64v-16zm-108.32 48-34.286-40h43.293l21.656 21.657a8 8 0 0 0 5.657 2.343h88v16zm84.32 144h-16v-16h16zm141.206-5.582-5.206 7.528-14.165-20.446zm-13.206 65.805a49.594 49.594 0 0 1 -16 36.651v-29.1a49.594 49.594 0 0 1 16-36.651zm16-20.223v-16h16v16zm48 27.777v29.1a49.594 49.594 0 0 1 -16-36.651v-29.1a49.594 49.594 0 0 1 16 36.651zm-28.19-59.777h-12.544l7.312-10.567c.044-.064.087-.128.129-.193l.111-.171 23.347-15.569zm140.19-8v-16h16v16z"/><path d="m16 296h48v16h-48z"/><path d="m40 328h72v16h-72z"/><path d="m16 392h16v16h-16z"/><path d="m48 392h40v16h-40z"/><path d="m32 432h72v16h-72z"/><path d="m64 264h88v16h-88z"/><path d="m472 264h24v16h-24z"/></g></svg>