<svg height="512" viewBox="0 0 512 512" width="512" xmlns="http://www.w3.org/2000/svg"><g id="Filled_outline" data-name="Filled outline"><path d="m458.307 304.082-60.307-16.082-22-10.667v-53.333h-80v53.333l-22 10.667-34 8.326-20.417 6.667a40 40 0 0 0 -27.583 38.023v82.984h-88v64h344a40 40 0 0 0 40-40v-105.269a40 40 0 0 0 -29.693-38.649z" fill="#fec9a3"/><path d="m376 246.318v-22.318h-80v22.318a87.469 87.469 0 0 0 80 0z" fill="#feb784"/><path d="m458.307 304.082-60.307-16.082-14-16-48 32-48-32-14 16-30 8h-4v152h88v40h120a40 40 0 0 0 40-40v-105.269a40 40 0 0 0 -29.693-38.649z" fill="#c7c7c5"/><path d="m293.657 340.928 42.343-36.928-48-32-14 16h.182z" fill="#e0e0de"/><path d="m378.343 340.928-42.343-36.928 48-32 14 16h-.182z" fill="#e0e0de"/><path d="m336 304-16 13.954v94.564l16 43.482 16-43.482v-94.564z" fill="#348fd9"/><path d="m408 120h8a24 24 0 0 1 24 24 24 24 0 0 1 -24 24h-8a0 0 0 0 1 0 0v-48a0 0 0 0 1 0 0z" fill="#feb784"/><path d="m264 120h-8a24.071 24.071 0 0 0 -24 24 24.07 24.07 0 0 0 24 24h8.48" fill="#feb784"/><path d="m408 112v56a72.006 72.006 0 0 1 -72 72 71.157 71.157 0 0 1 -9.85-.68h-.01a72.006 72.006 0 0 1 -62.14-71.32v-56a72.006 72.006 0 0 1 72-72c.89 0 1.79.02 2.67.05a72.005 72.005 0 0 1 69.33 71.95z" fill="#fec9a3"/><path d="m408 112v56a72.006 72.006 0 0 1 -72 72 71.157 71.157 0 0 1 -9.85-.68 88 88 0 0 0 49.85-79.32v-48a88.12 88.12 0 0 0 -37.33-71.95 72.005 72.005 0 0 1 69.33 71.95z" fill="#fec093"/><path d="m264 120v-32c0-26.51 17.909-48 40-48l-1.408 5.068c-7.842 28.232-21.055 53.888-38.592 74.932z" fill="#f27900"/><path d="m408 120v-55.015a25.754 25.754 0 0 0 -32-24.985v24s14.463 34.956 32 56z" fill="#f27900"/><path d="m376 40v24h-112a39.807 39.807 0 0 1 10.44-26.93c.41-.46.84-.91 1.28-1.35a39.908 39.908 0 0 1 28.28-11.72h33.37a54.641 54.641 0 0 1 38.63 16z" fill="#f98500"/><path d="m274 288-32.668 8h2.668z" fill="none"/><path d="m240 296v.326l1.332-.326z" fill="#c7c7c5"/><path d="m458.307 304.082-60.307-16.082h-.182l-61.818 168-61.818-168h-.182l-30 8h-2.668l-1.332.326v127.674h-136v64h344a40 40 0 0 0 40-40v-105.269a40 40 0 0 0 -29.693-38.649z" fill="#3d4d63"/><path d="m240 360 32 8-16 32 80 56-58.401-158.712-3.599-9.288-21.975 5.86z" fill="#49648e"/><path d="m432 360-32 8 16 32-80 56 58.401-158.712 3.599-9.288 21.975 5.86z" fill="#49648e"/><path d="m328 448h16v40h-16z" fill="#334562"/><path d="m328 432h32v56h-32z" fill="#e0e0de"/><rect fill="#e0e0de" height="176" rx="16" width="224" x="24" y="280"/><path d="m241.853 283.48-172.52 172.52h162.667a16 16 0 0 0 16-16v-144a15.909 15.909 0 0 0 -6.147-12.52z" fill="#d6d6d4"/><path d="m56 328h32v32h-32z" fill="#348fd9"/><path d="m120 328h32v32h-32z" fill="#60d1e0"/><path d="m184 328h32v32h-32z" fill="#348fd9"/><path d="m56 392h32v32h-32z" fill="#60d1e0"/><path d="m120 392h32v32h-32z" fill="#348fd9"/><path d="m184 392h32v32h-32z" fill="#4db7e5"/><path d="m72 424h48a16 16 0 0 1 16 16v48a0 0 0 0 1 0 0h-64a16 16 0 0 1 -16-16v-32a16 16 0 0 1 16-16z" fill="#fec9a3"/><path d="m56 456v16a16 16 0 0 0 16 16h64v-16h-64a16 16 0 0 1 -16-16z" fill="#fec093"/><path d="m328 488h-112a16 16 0 0 1 -16-16 16 16 0 0 1 16-16h32a16 16 0 0 1 -16-16 16 16 0 0 1 16-16h24a40.77 40.77 0 0 1 47.076 1.307l8.924 6.693z" fill="#fec9a3"/><path d="m360 432h72v56h-72z" fill="#3d4d63"/><path d="m312 192h16.934a115.032 115.032 0 0 0 33.385-4.9l-4.638-15.313a99.062 99.062 0 0 1 -28.747 4.213h-16.934z"/><path d="m300 144a12 12 0 1 0 -12-12 12.013 12.013 0 0 0 12 12z"/><path d="m372 144a12 12 0 1 0 -12-12 12.013 12.013 0 0 0 12 12z"/><path d="m56 368h32a8 8 0 0 0 8-8v-32a8 8 0 0 0 -8-8h-32a8 8 0 0 0 -8 8v32a8 8 0 0 0 8 8zm8-32h16v16h-16z"/><path d="m120 368h32a8 8 0 0 0 8-8v-32a8 8 0 0 0 -8-8h-32a8 8 0 0 0 -8 8v32a8 8 0 0 0 8 8zm8-32h16v16h-16z"/><path d="m184 368h32a8 8 0 0 0 8-8v-32a8 8 0 0 0 -8-8h-32a8 8 0 0 0 -8 8v32a8 8 0 0 0 8 8zm8-32h16v16h-16z"/><path d="m184 432h32a8 8 0 0 0 8-8v-32a8 8 0 0 0 -8-8h-32a8 8 0 0 0 -8 8v32a8 8 0 0 0 8 8zm8-32h16v16h-16z"/><path d="m460.388 296.352h-.007l-.143-.038-57.825-15.418-12.392-14.162a7.969 7.969 0 0 0 -2.93-2.111c-.016-.007-.032-.012-.048-.018-.2-.084-.408-.16-.617-.227-.077-.024-.155-.04-.233-.063-.149-.042-.3-.087-.45-.121-.108-.024-.218-.038-.328-.058s-.243-.049-.366-.065c-.152-.02-.3-.028-.457-.04-.082-.006-.163-.018-.245-.021-.116 0-.232 0-.347 0v-32.044a79.772 79.772 0 0 0 31.6-55.966h.4a32 32 0 0 0 0-64v-47.016a33.741 33.741 0 0 0 -37.468-33.541 62.156 62.156 0 0 0 -41.159-15.443h-33.373a48.053 48.053 0 0 0 -48 48 7.971 7.971 0 0 0 2.57 5.863 64.841 64.841 0 0 0 -2.57 18.137v24a32 32 0 1 0 0 64h.4a79.764 79.764 0 0 0 31.6 55.97v32.04c-.045 0-.091 0-.136 0-.068 0-.137 0-.206 0-.2.009-.4.029-.6.052-.035 0-.071 0-.107.01-.224.029-.447.069-.669.118h-.026a7.983 7.983 0 0 0 -4.281 2.541l-12.338 14.1-16.37 4.018a23.911 23.911 0 0 0 -21.267-12.849h-8v-16h-16v16h-16v-16h-16v16h-16v-16h-16v16h-16v-16h-16v16h-16v-16h-16v16h-16v-16h-16v16h-8a24.028 24.028 0 0 0 -24 24v144a24.028 24.028 0 0 0 24 24h8v8a24.028 24.028 0 0 0 24 24h376a48.053 48.053 0 0 0 48-48s-.229-110.675-.67-113.289a47.97 47.97 0 0 0 -34.942-38.359zm-37.6 57.7-24.731 6.183a8 8 0 0 0 -5.215 11.339l12.914 25.828-37.956 26.598h-11.52l45.654-124.014.638-1.632c.019-.048.037-.1.055-.145l.246-.631 10.168 2.711zm-133.4-71.495 33.45 22.284-25.678 22.411zm46.612-34.557a79.609 79.609 0 0 0 32-6.683v31.735l-32 21.333-32-21.333v-31.736a79.6 79.6 0 0 0 32 6.684zm24 87.546 8.926 7.785-8.926 24.252zm28.725-46-1.746 4.743-.029.075c-.019.05-.039.1-.057.151l-12.052 32.745-17.241-15.035c-.117-.115-.227-.233-.351-.34l-8.09-7.038 31.292-20.84 2.157-1.446 5.57 6.365zm-76.725 46v32.009l-8.921-24.228zm-56 36.7 4.385 1.1-4.385 8.766zm0 37.52 8.9 6.234h-8.9zm28.539.454-18.3-12.815 12.914-25.827a8 8 0 0 0 -5.215-11.339l-17.938-4.485v-55.087l13.376-2.454 16.773 45.477c.013.034.031.065.044.1l25.151 68.334a48.971 48.971 0 0 0 -26.805-1.904zm48.244 13.78-4.783-12.991v-89.417l8-6.977 8 6.977v89.46l-4.776 12.948zm83.217-14.233v14.233h-20.317zm16-265.767a16.019 16.019 0 0 1 -16 16v-32a16.019 16.019 0 0 1 16 16zm-32-79.016v29.151a315.751 315.751 0 0 1 -16-31.768v-15.06a17.778 17.778 0 0 1 16 17.677zm-32-21.518v12.534h-12.155l-19.2-24h.728a46.284 46.284 0 0 1 30.627 11.466zm-51.845-11.466 19.2 24h-20.041l-22.114-22.119c3.372-1.215 22.955-1.881 22.955-1.881zm-44.155 56a48.207 48.207 0 0 1 2.678-16h9.671a192.59 192.59 0 0 1 -12.349 23.328zm7.789-44.9 12.9 12.9h-19.676a31.941 31.941 0 0 1 6.776-12.9zm-39.789 100.9a16.019 16.019 0 0 1 16-16v32a16.019 16.019 0 0 1 -16-16zm32 24v-45.168c1.532-1.91 3.075-3.879 4.675-5.972l.067-.089a205.224 205.224 0 0 0 25-44.771h69.008c4.537 10.166 15.768 33.778 29.25 50.831v45.169a64 64 0 0 1 -128 0zm-232 280a8.009 8.009 0 0 1 -8-8v-144a8.009 8.009 0 0 1 8-8h8v16h16v-16h16v16h16v-16h16v16h16v-16h16v16h16v-16h16v16h16v-16h16v16h16v-16h8a8.065 8.065 0 0 1 7.92 6.864v.1a7.886 7.886 0 0 0 .08 1.129v121.283a24 24 0 0 0 -14.629 30.624h-81.371v-8a23.889 23.889 0 0 0 -1.376-8h9.376a8 8 0 0 0 8-8v-32a8 8 0 0 0 -8-8h-32a8 8 0 0 0 -8 8v24h-16v-24a8 8 0 0 0 -8-8h-32a8 8 0 0 0 -8 8v32a7.972 7.972 0 0 0 2.346 5.659 23.844 23.844 0 0 0 -2.346 10.341v8zm88-32v-16h16v16zm16 48h49.376a23.944 23.944 0 0 0 0 16h-49.376zm-80-48v-16h16v16zm64 64h-56a8.009 8.009 0 0 1 -8-8v-32a8.009 8.009 0 0 1 8-8h48a8.009 8.009 0 0 1 8 8zm80-8a8.009 8.009 0 0 1 8-8h48a8 8 0 0 0 0-16h-16a8 8 0 0 1 0-16h24a8.005 8.005 0 0 0 4.438-1.344 32.82 32.82 0 0 1 37.837 1.051l5.725 4.293v44h-104a8.009 8.009 0 0 1 -8-8zm128-32h16v40h-16zm144 8a32.036 32.036 0 0 1 -32 32h-80v-40h56a8 8 0 0 0 8-8v-40h-11.056l-9.329-18.657 22.325-5.582a8 8 0 0 0 5.932-9.189l-9.745-53.728 26.145 6.969a31.974 31.974 0 0 1 23.728 30.907z"/></g></svg>