<svg height="512" viewBox="0 0 512 512" width="512" xmlns="http://www.w3.org/2000/svg"><g id="Filled_outline" data-name="Filled outline"><path d="m376 278.208v-62.208h-80v62.208l-22 10.666 62 47.126 62-47.126z" fill="#fec9a3"/><path d="m457.925 304.854-59.925-15.98-14-16-48 32-48-32-14 16-53.05 16.579a48 48 0 0 0 -29.7 26.676l-71.25 163.871h72l48-112v112h248v-152a40.514 40.514 0 0 0 -30.075-39.146z" fill="#c7c7c5"/><path d="m376 254.318v-38.318h-80v38.318a87.469 87.469 0 0 0 80 0z" fill="#feb784"/><path d="m412 44a68.283 68.283 0 0 0 -48.284-20h-55.432a68.284 68.284 0 0 0 -68.284 68.284v99.716l-8 32h208l-8-32v-99.716a68.283 68.283 0 0 0 -20-48.284z" fill="#c7c7c5"/><g fill="#b0b0ae"><path d="m341.461 85.234 15.75 2.86 10.689-62.844.164-1.035c-1.446-.092-2.889-.215-4.346-.215h-11.969l-7.624 46.57z"/><path d="m363.781 82.7 15.11 5.282 2.093-6 7.816 10.418 37.217-27.914a68.193 68.193 0 0 0 -8.124-13.647l-35.165 26.142.7-2.012 15.937-39.852.331-.783a68.219 68.219 0 0 0 -14.268-6.718l-16.983 41.743z"/><path d="m392.367 92.336 4.594 15.328 35.039-11.25v-4.13a68.169 68.169 0 0 0 -1.147-12.2l-25.153 8.252z"/><path d="m312.047 72.883 1.336 12 15.906-1.766-1.4-12.429-7.781-46.688h-11.824c-1.468 0-2.92.123-4.376.217l.2 1.1z"/><path d="m282.273 92.2 8.538-10.447 2.259 6.783 15.188-5.062-4.828-14.443-16.6-41.507a68.168 68.168 0 0 0 -14.51 6.8l16.089 40.205.923 2.768-4.532-3.697-30.622-22.854a68.143 68.143 0 0 0 -8.23 13.818l28.99 21.636z"/><path d="m280.531 93.07-38.331-12.765-1.036-.3a68.14 68.14 0 0 0 -1.164 12.279v4.146l35.469 11.828z"/></g><path d="m416 120h-8v48h8a24 24 0 0 0 24-24 24 24 0 0 0 -24-24z" fill="#feb784"/><path d="m256.4 120h-.4a24.071 24.071 0 0 0 -24 24 24.071 24.071 0 0 0 24 24h8.48l-.48-48z" fill="#feb784"/><path d="m408 104v72a72 72 0 0 1 -70.95 71.99c-.35.01-.7.01-1.05.01a72.006 72.006 0 0 1 -72-72v-72a32 32 0 0 1 32-32h80a32 32 0 0 1 32 32z" fill="#fec9a3"/><path d="m408 104v72a72 72 0 0 1 -70.95 71.99 87.831 87.831 0 0 0 36-70.99v-48a87.618 87.618 0 0 0 -20.96-57h23.91a32 32 0 0 1 32 32z" fill="#fec093"/><path d="m352 168h-32a40 40 0 0 0 -40 40h30.111a28.944 28.944 0 0 0 25.889-16 28.944 28.944 0 0 0 25.888 16h30.112a40 40 0 0 0 -40-40z" fill="#e0e0de"/><ellipse cx="116" cy="180" fill="#f35244" rx="13.102" ry="12.766"/><path d="m116 288c-29.516 0-45.438-55.641-45.438-108s15.922-108 45.438-108 45.438 55.641 45.438 108-15.922 108-45.438 108zm0-200c-12 0-29.438 35.836-29.438 92s17.438 92 29.438 92 29.438-35.836 29.438-92-17.438-92-29.438-92z" fill="#4db7e5"/><path d="m49.469 247.031c-14.031 0-24.961-3.883-30.383-12.914-2.266-3.773-4.453-10.211-1.984-19.406 5.828-21.773 35.773-50.383 76.3-72.883 48.1-26.719 104.61-40.766 119.516-15.945 2.266 3.773 4.453 10.211 1.984 19.406-5.828 21.773-35.773 50.383-76.3 72.883-30.602 16.992-64.61 28.859-89.133 28.859zm51.7-91.219c-41.75 23.188-64.836 48.93-68.609 63.04-.813 3.031-.727 5.4.25 7.031 6 10 47.187 6.515 98.031-21.7 41.75-23.188 64.836-48.93 68.609-63.04.813-3.031.727-5.4-.25-7.031-6-10-47.179-6.523-98.031 21.7z" fill="#4db7e5"/><path d="m182.531 247.031c-24.531 0-58.523-11.867-89.133-28.859-40.523-22.5-70.468-51.11-76.3-72.883-2.469-9.195-.282-15.633 1.984-19.406 14.906-24.821 71.406-10.766 119.516 15.945 40.523 22.5 70.468 51.11 76.3 72.883 2.469 9.195.282 15.633-1.984 19.406-5.422 9.031-16.352 12.914-30.383 12.914zm-81.367-42.843c50.836 28.21 92.016 31.7 98.031 21.7.977-1.633 1.063-4 .25-7.031-3.773-14.11-26.859-39.852-68.609-63.04-50.859-28.234-92.031-31.7-98.031-21.7-.977 1.633-1.063 4-.25 7.031 3.773 14.11 26.859 39.852 68.609 63.04z" fill="#4db7e5"/><path d="m488 344v152h-248v-111.13l-47.62 111.13h-72.38l71.25-163.87a48.034 48.034 0 0 1 29.7-26.68l53.05-16.58c29.07 45.02 94.93 45.02 124 0l59.93 15.98a40.528 40.528 0 0 1 30.07 39.15z" fill="#95573a"/><path d="m293.657 341.803 42.343-36.929-48-32-14 16h.182z" fill="#e0e0de"/><path d="m378.343 341.803-42.343-36.929 48-32 14 16h-.182z" fill="#e0e0de"/><path d="m184 392h-56l-3.077 40h59.077z" fill="#e0e0de"/><path d="m124.923 432-4.923 64h64v-64z" fill="#a36548"/><path d="m154.821 296.467a15.563 15.563 0 0 0 -10.145 22.058l7.324 14.647h-36.669a48 48 0 0 1 -21.466-5.067l-7.972-3.986a9.6 9.6 0 0 0 -13.893 8.586v33.406a16 16 0 0 0 8.845 14.311l13.02 6.511a48 48 0 0 0 21.466 5.067h68.669v-58.828l-10.955-27.387a15.562 15.562 0 0 0 -18.224-9.318z" fill="#fec9a3"/><path d="m488 344v152h-248v-.02c91.66-38.12 168.14-82.42 231.57-184.56a40.519 40.519 0 0 1 16.43 32.58z" fill="#8f4d2e"/><path d="m424 384h16v112h-16z" fill="#61311b"/><path d="m459.983 297.15-57.56-15.37-12.4-14.174a7.983 7.983 0 0 0 -6.023-2.724v-24.925a80.626 80.626 0 0 0 9.059-7.957h46.941a8 8 0 0 0 7.761-9.94l-7.761-31.044v-25.889a31.91 31.91 0 0 0 0-42.264s-.082-33.6-.161-35.015l-.013-.238a74.538 74.538 0 0 0 -10.693-34.31 70.656 70.656 0 0 0 -11.476-14.955 75.829 75.829 0 0 0 -53.977-22.345h-55.36a75.829 75.829 0 0 0 -53.977 22.343 70.656 70.656 0 0 0 -11.476 14.957 74.557 74.557 0 0 0 -10.694 34.338l-.012.212c-.079 1.417-.161 35.015-.161 35.015a31.91 31.91 0 0 0 0 42.264v25.889l-7.761 31.044a8 8 0 0 0 7.761 9.938h46.941a80.626 80.626 0 0 0 9.059 7.957v24.924a7.985 7.985 0 0 0 -6.021 2.725l-12.521 14.311-50.889 15.889a55.867 55.867 0 0 0 -30.651 23.622l-7.445-18.614a23.563 23.563 0 1 0 -42.952 19.286l1.535 3.069h-23.725a40.2 40.2 0 0 1 -17.889-4.223l-7.971-3.985a17.6 17.6 0 0 0 -25.471 15.744v33.406a23.868 23.868 0 0 0 13.267 21.466l13.021 6.511a56.284 56.284 0 0 0 25.043 5.912h4.03l-7.338 95.387 15.954 1.226 4.354-56.613h43.669v56h25l31-73.024v73.024h16v-112l-15.354-3.151-40.646 94.841v-125.144l6.626-15.218a39.85 39.85 0 0 1 24.719-22.251l45.94-14.344 16.864 45.832a8 8 0 0 0 12.766 3.267l21.432-18.692c4.8.922 14.736 1.5 14.773 1.5h.88a82.77 82.77 0 0 0 15.652-1.5l21.433 18.692a8 8 0 0 0 12.766-3.267l16.969-46.118 53.045 14.164a32.514 32.514 0 0 1 24.135 31.389v152h16v-152a48.528 48.528 0 0 0 -36.017-46.85zm-362.54 82.627-13.021-6.51a7.958 7.958 0 0 1 -4.422-7.156v-33.406a1.53 1.53 0 0 1 .759-1.36 1.59 1.59 0 0 1 .836-.25 1.619 1.619 0 0 1 .721.179l7.971 3.986a56.275 56.275 0 0 0 25.044 5.912h36.669a8 8 0 0 0 7.155-11.578l-7.324-14.647a7.563 7.563 0 1 1 13.786-6.19l10.383 25.956v49.287h-60.669a40.2 40.2 0 0 1 -17.888-4.223zm36.119 44.223 1.846-24h40.592v24zm152.531-208h24.018a36.748 36.748 0 0 0 25.889-10.552 36.744 36.744 0 0 0 25.889 10.552h24.018a63.89 63.89 0 0 1 -99.814 0zm-46.093-72a16.019 16.019 0 0 1 16-16v32a16.019 16.019 0 0 1 -16-16zm16.064-42.207c-.04.733-.064 1.47-.064 2.212v8a31.94 31.94 0 0 0 -8 1.013v-13.918zm4.087-15.5-11.311-3.77a58.682 58.682 0 0 1 3.736-13.058l12.429 9.294a40.1 40.1 0 0 0 -4.854 7.525zm11.849 89.707v-72a24.028 24.028 0 0 1 24-24h80a24.028 24.028 0 0 1 24 24v72a63.827 63.827 0 0 1 -2.357 17.166 48.077 48.077 0 0 0 -45.643-33.166h-32a48.077 48.077 0 0 0 -45.643 33.166 63.827 63.827 0 0 1 -2.357-17.166zm98.584-112h-9.14l5.321-31.921a60.316 60.316 0 0 1 15.459 2.821zm-25.361 0h-18.446l-5.333-32h29.112zm-34.667 0h-9.14l-11.64-29.1a60.316 60.316 0 0 1 15.459-2.822zm108.869 5.456a58.674 58.674 0 0 1 3.736 13.057l-11.312 3.771a40.1 40.1 0 0 0 -4.849-7.534zm-3.425 90.544v-32a16 16 0 0 1 0 32zm0-48v-8c0-.742-.024-1.479-.064-2.212l8.064-2.688v13.908a31.94 31.94 0 0 0 -8-1.008zm-33.013 88h-21.1a20.833 20.833 0 0 1 -18.734-11.577 8 8 0 0 0 -14.31 0 20.833 20.833 0 0 1 -18.732 11.577h-21.1a32.056 32.056 0 0 1 30.989-24h32a32.056 32.056 0 0 1 30.987 24zm22.25 16a79.486 79.486 0 0 0 10.763-40 31.94 31.94 0 0 0 8-1.013v17.013a7.977 7.977 0 0 0 .239 1.94l5.515 22.06zm6.18-160.537-17.265 12.911a39.719 39.719 0 0 0 -6.976-2.773l9.516-23.791a60.789 60.789 0 0 1 9.651 7.847 56.915 56.915 0 0 1 5.074 5.806zm-136.109-13.653 9.516 23.79a39.719 39.719 0 0 0 -6.976 2.773l-17.265-12.91a56.915 56.915 0 0 1 5.074-5.806 60.789 60.789 0 0 1 9.651-7.847zm-33.062 174.19 5.515-22.06a7.977 7.977 0 0 0 .239-1.94v-17.018a31.94 31.94 0 0 0 8 1.018 79.486 79.486 0 0 0 10.763 40zm93.754 40a79.517 79.517 0 0 0 32-6.7v24.626l-32 21.334-32-21.334v-24.626a79.517 79.517 0 0 0 32 6.7zm-38.847 72.139-13.878-37.717 6.125-7 33.454 22.3zm77.694 0-25.7-22.414 33.454-22.3 6.125 7z"/><path d="m424 384h16v112h-16z"/><path d="m300 152a12 12 0 1 0 -12-12 12.013 12.013 0 0 0 12 12z"/><path d="m372 128a12 12 0 1 0 12 12 12.013 12.013 0 0 0 -12-12z"/><path d="m288 96h96v16h-96z"/><path d="m116 192.762a12.766 12.766 0 1 0 -13.1-12.762 12.951 12.951 0 0 0 13.1 12.762z"/><path d="m17.1 214.71c-2.463 9.2-.279 15.632 1.989 19.408 3.773 6.286 12.071 12.832 30.251 12.832 5.058 0 25.219-3.158 29.2-4.162 1.071 3.743 2.235 7.335 3.5 10.728 8.321 22.237 20.383 34.484 33.96 34.484s25.639-12.247 33.964-34.484c1.27-3.393 2.434-6.985 3.5-10.728 3.976 1 24.136 4.162 29.195 4.162 18.177 0 26.478-6.547 30.251-12.832 2.268-3.776 4.452-10.208 1.989-19.408-2.8-10.47-11.195-22.52-23.644-34.71 12.449-12.19 20.841-24.24 23.644-34.71 2.463-9.2.279-15.632-1.989-19.408-4.822-8.035-17.038-16.5-47.835-11.165-3.752.649-7.635 1.491-11.611 2.5-1.071-3.743-2.235-7.335-3.5-10.728-8.325-22.242-20.387-34.489-33.964-34.489s-25.639 12.247-33.964 34.484c-1.27 3.393-2.434 6.985-3.5 10.728-3.976-1-7.859-1.846-11.611-2.5-30.8-5.329-43.012 3.131-47.835 11.165-2.268 3.776-4.452 10.208-1.989 19.408 2.8 10.47 11.2 22.52 23.644 34.71-12.454 12.195-20.845 24.245-23.645 34.715zm98.9 57.29c-7.031 0-15.921-12.313-22.083-33.79 7.206-2.448 14.606-5.365 22.083-8.715 7.477 3.35 14.877 6.267 22.083 8.715-6.162 21.477-15.052 33.79-22.083 33.79zm-29.436-92c0-5.47.17-10.74.48-15.81q6.666-4.216 14.121-8.373 7.575-4.2 14.835-7.683 7.251 3.491 14.835 7.683 7.463 4.144 14.121 8.373c.31 5.07.48 10.34.48 15.81s-.17 10.74-.48 15.81q-6.666 4.216-14.121 8.373-7.577 4.206-14.835 7.68-7.251-3.49-14.835-7.68-7.463-4.144-14.121-8.373c-.31-5.07-.48-10.34-.48-15.81zm-15.958 4.5q-3.006-2.261-5.786-4.5 2.775-2.237 5.786-4.5c-.024 1.5-.042 2.993-.042 4.5s.018 3 .042 4.5zm18.52-40.247c.35-2.329.724-4.608 1.134-6.811q3.289 1.143 6.7 2.45c-1.189.64-2.379 1.28-3.566 1.939q-2.153 1.196-4.268 2.42zm45.909-4.362q3.416-1.311 6.705-2.449c.41 2.2.784 4.482 1.134 6.811q-2.118-1.221-4.273-2.422c-1.187-.661-2.377-1.302-3.566-1.942zm26.359 35.609q3.007 2.259 5.786 4.5-2.775 2.237-5.786 4.5c.024-1.5.042-2.993.042-4.5s-.018-3-.042-4.5zm-18.52 40.247c-.35 2.329-.724 4.608-1.134 6.811q-3.282-1.14-6.7-2.455c1.186-.638 2.373-1.277 3.557-1.934q2.163-1.196 4.277-2.42zm-49.474 2.424c1.184.657 2.371 1.3 3.557 1.934q-3.408 1.308-6.7 2.455c-.41-2.2-.784-4.482-1.134-6.811q2.121 1.221 4.277 2.422zm106.049.678c.814 3.036.729 5.4-.25 7.033-3.541 5.9-19.3 7.106-42.042 1.334 1.369-7.1 2.428-14.583 3.146-22.336 6.852-4.626 13.226-9.384 19.036-14.186 11.488 11.113 18.218 21.092 20.109 28.155zm-16.5-89.829c8.572 0 14.286 1.831 16.248 5.1.979 1.631 1.064 4 .25 7.033-1.891 7.063-8.621 17.042-20.11 28.155-5.81-4.8-12.184-9.56-19.036-14.186-.718-7.753-1.777-15.233-3.146-22.336 10.145-2.575 18.898-3.766 25.795-3.766zm-66.949-41.02c7.031 0 15.921 12.313 22.083 33.79-7.206 2.448-14.606 5.365-22.083 8.715-7.477-3.35-14.877-6.267-22.083-8.715 6.162-21.477 15.052-33.79 22.083-33.79zm-83.448 53.151c-.814-3.036-.729-5.4.25-7.033 1.963-3.268 7.674-5.1 16.248-5.1 6.9 0 15.654 1.191 25.794 3.764-1.369 7.1-2.428 14.583-3.146 22.336-6.852 4.626-13.226 9.384-19.036 14.186-11.489-11.111-18.219-21.09-20.11-28.153zm39.148 63.729c.718 7.752 1.777 15.233 3.146 22.335-22.744 5.772-38.5 4.564-42.042-1.333-.979-1.631-1.064-4-.25-7.033 1.891-7.063 8.621-17.042 20.11-28.155 5.808 4.806 12.182 9.56 19.036 14.186z"/></g></svg>